<?xml version="1.0" standalone="no"?>
<!DOCTYPE svg PUBLIC "-//W3C//DTD SVG 1.1//EN" "http://www.w3.org/Graphics/SVG/1.1/DTD/svg11.dtd" >
<!--
2016-12-6: Created.
-->
<svg xmlns="http://www.w3.org/2000/svg">
<metadata>
Created by FontForge 20120731 at Tue Dec  6 03:14:25 2016
 By icons8

</metadata>
<defs>
<font id="Mixit-Modular-Font" horiz-adv-x="512" >
  <font-face 
    font-family="Mixit-Modular-Font"
    font-weight="500"
    font-stretch="normal"
    units-per-em="512"
    panose-1="2 0 6 3 0 0 0 0 0 0"
    ascent="448"
    descent="-64"
    bbox="-0.639648 -64.1689 512.169 448.355"
    underline-thickness="25.6"
    underline-position="-51.2"
    unicode-range="U+0020-F13F"
  />
    <missing-glyph />
    <glyph glyph-name="space" unicode=" " horiz-adv-x="200" 
 />
    <glyph glyph-name="survey" unicode="&#xf126;" 
d="M173.538 448c0.254883 0.0117188 0.668945 0.0214844 0.923828 0.0214844s0.667969 -0.00976562 0.922852 -0.0214844c0.254883 0.0117188 0.667969 0.0214844 0.922852 0.0214844s0.668945 -0.00976562 0.922852 -0.0214844h157.539
c10.8691 -0.000976562 19.6914 -8.82324 19.6924 -19.6924v-19.6924h70.7686c15.7539 0 27.8154 -11.9385 25.8467 -27.6924v-417.23c0 -15.7539 -11.9385 -27.6924 -27.6924 -27.6924h-336.615c-15.7539 0 -27.6924 11.8154 -27.6924 29.5381v415.385
c0 15.7539 11.9385 27.6924 27.6924 27.6924h70.7686v19.6924c-0.000976562 0.0957031 -0.00292969 0.250977 -0.00292969 0.34668c0 8.99316 7.16992 17.6602 16.0029 19.3457zM196.923 408.615v-39.3848h118.154v39.3848h-118.154zM98.4619 369.23v-393.846h315.076
v393.846h-59.0762v-19.6924c-0.000976562 -10.8691 -8.82324 -19.6904 -19.6924 -19.6924h-157.539c-10.8691 0.00195312 -19.6914 8.82324 -19.6924 19.6924v19.6924h-59.0762zM137.846 270.77h78.7695v-78.7695h-78.7695v78.7695zM157.538 251.077v-39.3848h39.3848
v39.3848h-39.3848zM256 251.077h118.154v-39.3848h-118.154v39.3848zM137.846 152.615h78.7695v-78.7695h-78.7695v78.7695zM256 132.923h118.154v-39.3848h-118.154v39.3848z" />
    <glyph glyph-name="xlarge-icons" unicode="&#xf129;" 
d="M0 408.615h19.6924h472.615h19.6924v-19.6924v-393.846v-19.6924h-19.6924h-472.615h-19.6924v19.6924v393.846v19.6924zM39.3848 369.23v-354.461h433.23v354.461h-433.23zM59.0771 349.538h19.6924h354.461h19.6924v-19.6924v-196.923v-98.4609h-374.153h-19.6924
v19.6924v275.691v19.6924zM98.4619 310.154v-131.077l78.7686 91.6924l98.4619 -137.847l78.7695 39.3848l59.0762 -23.3848v161.231h-315.076zM344.615 270.77c16.3135 0 29.5391 -13.2256 29.5391 -29.5391s-13.2256 -29.5381 -29.5391 -29.5381
s-29.5381 13.2246 -29.5381 29.5381s13.2246 29.5391 29.5381 29.5391z" />
    <glyph glyph-name="truck" unicode="&#xf128;" 
d="M19.6924 369.23h256c11.8154 0 19.6924 -7.87695 19.6924 -19.6924v-275.692c0 -11.8145 -7.87695 -19.6914 -19.6924 -19.6914h-78.7695c-3.93848 33.4766 -33.4766 60.9229 -68.9229 60.9229s-64.9844 -27.4463 -68.9229 -60.9229h-39.3848
c-11.8154 0 -19.6924 7.87695 -19.6924 19.6914v275.692c0 11.8154 7.87695 19.6924 19.6924 19.6924zM334.77 290.462h88.6152c13.7842 0 19.6924 -7.87695 29.5381 -19.6924l43.0771 -59.0771s16 -21.6611 16 -39.3848v-98.4619
c0 -11.8145 -7.87695 -19.6914 -19.6924 -19.6914h-19.6924c-3.93848 35.4453 -33.4766 60.9229 -68.9229 60.9229s-64.9844 -27.4463 -68.9229 -60.9229c-11.8154 0 -19.6924 9.8457 -19.6924 19.6914v196.924c0 11.8154 7.87695 19.6924 19.6924 19.6924zM374.154 251.077
v-78.7695h104.615c0 5.9082 -4.06152 11.9385 -8 17.8467l-41.2314 57.2305s-4.06152 3.69238 -8 3.69238h-47.3838zM128 89.8457c25.0146 0 45.5381 -20.5234 45.5381 -45.5381s-20.5234 -45.5381 -45.5381 -45.5381s-45.5381 20.5234 -45.5381 45.5381
s20.5234 45.5381 45.5381 45.5381zM403.692 89.8457c25.0146 0 45.5381 -20.5234 45.5381 -45.5381s-20.5234 -45.5381 -45.5381 -45.5381s-45.5381 20.5234 -45.5381 45.5381s20.5234 45.5381 45.5381 45.5381z" />
    <glyph glyph-name="no-paint" unicode="&#xf10d;" 
d="M9.28027 448.32c0.234375 0.0195312 0.615234 0.0351562 0.849609 0.0351562c2.44824 0 5.79492 -1.44922 7.46973 -3.23535l80.96 -80.96c32.3633 50.1553 90.832 83.8398 157.44 83.8398c101.632 0 184.32 -78.0898 184.32 -174.08v-245.76
c0 -1.69922 -0.462891 -3.44629 -0.640625 -5.12012l69.4404 -69.4404c1.68262 -1.68262 3.04883 -4.97949 3.04883 -7.35938c0 -5.74609 -4.66309 -10.4092 -10.4092 -10.4092c-2.37988 0 -5.67676 1.36621 -7.35938 3.04883l-491.521 491.521
c-1.81738 1.67871 -3.29297 5.04883 -3.29297 7.52344c0 4.71973 3.76953 9.2334 8.41309 10.0762c0.347656 0.111328 0.920898 0.254883 1.28027 0.320312zM256 427.52c-61.1641 0 -114.329 -31.6953 -142.4 -78.3994l20.8008 -20.7998
c34.3906 11.2822 78.5049 17.2793 121.6 17.2793c60.8975 0 124.446 -11.75 158.72 -33.9199c-18.043 66.4375 -82.3193 115.84 -158.72 115.84zM80 325.44l29.7598 -30.0801c-11.5508 -7.18848 -17.5996 -14.7334 -17.5996 -21.4404
c0 -14.9092 30.4229 -34.0117 83.2002 -44.1602l24.3193 -24c-26.583 3.21582 -51.8018 8.38184 -72.6396 16c1.57715 -6.09277 2.73438 -12.0928 3.83984 -17.9199c4.65918 -24.6582 7.54199 -32.3203 17.2803 -32.3203c12.165 0 16.6836 4.00684 22.0801 9.28027
c5.03809 4.92578 11.1152 11.2002 22.3994 11.2002c29.9521 0 30.8096 -36.5283 31.6807 -72c1.05469 -43.0186 3.54492 -71.3604 25.9199 -71.3604c6.56348 0 9.41504 1.9541 10.8799 3.52051c7.80273 8.33496 5.90332 32.502 4.47949 53.7598
c-0.77832 11.7148 -1.37988 23.4902 -0.959961 34.5605l20.8008 -20.8008c0.214844 -4.1875 0.363281 -8.38379 0.639648 -12.4795c1.86328 -27.8838 3.625 -53.9834 -10.2402 -68.7998c-6.2666 -6.70801 -14.8379 -10.2402 -25.5996 -10.2402
c-44.0322 0 -45.3965 50.5781 -46.4004 91.2002c-0.573242 23.2441 -1.23633 52.1592 -11.2002 52.1592c-2.67188 0 -3.97754 -0.879883 -8.31934 -5.11914c-6.21582 -6.08301 -15.6602 -15.3604 -36.1602 -15.3604c-28.252 0 -33.3135 27.1182 -37.4404 48.96
c-2.38574 12.5547 -4.76367 25.6201 -10.5596 34.5596c-2.85742 1.7207 -5.53223 3.57715 -8 5.44043v-211.84c0 -34.6113 65.8428 -71.6797 163.84 -71.6797c70.9834 0 125.008 19.3203 149.44 43.1992l14.3994 -14.3994
c-30.3613 -29.5635 -91.5762 -49.2803 -163.84 -49.2803c-103.362 0 -184.32 40.4785 -184.32 92.1602v245.76c0 17.8789 2.99512 35.2695 8.32031 51.5205zM256 325.12c-42.6846 0 -78.2109 -5.41797 -105.28 -13.1201l88.96 -88.96
c5.36523 -0.186523 10.6934 -0.320312 16.3203 -0.320312c101.509 0 163.84 29.8193 163.84 51.2002s-62.3311 51.2002 -163.84 51.2002zM419.84 240c-2.18066 -1.63867 -4.57227 -3.26367 -7.04004 -4.7998c-0.563477 -1.28027 -1.13379 -2.52734 -2.24023 -3.52051
c-13.4648 -12.0928 -15.5615 -35.6631 -17.5996 -58.5596c-2.61133 -29.4912 -5.66016 -63.04 -39.3604 -63.04c-0.34082 0 -0.624023 -0.00585938 -0.959961 0l67.2002 -67.2002v197.12zM380.16 220.16c-33.5557 -11.3799 -77.0371 -17.5215 -119.68 -17.9199
l19.5195 -19.5205c7.0166 6.06738 16.2119 9.28027 27.5195 9.28027c19.2207 0 22.3135 -19.6963 24.3203 -32.6396c3.19531 -20.5625 6.14453 -28.8008 21.7598 -28.8008c12.9023 0 15.8906 10.4199 18.8809 44.1602c1.33105 14.9609 2.83594 31.1348 7.67969 45.4404z
M307.84 171.52c-5.75684 -0.106445 -10.2471 -0.954102 -13.4395 -3.19922l18.5596 -18.5605c-0.419922 2.33105 -0.960938 4.65332 -1.28027 6.7207c-0.798828 5.11914 -2.10938 13.4111 -3.83984 15.0391z" />
    <glyph glyph-name="paint-sprayer-filled" unicode="&#xf10f;" 
d="M163.84 448h245.76c5.66309 0 10.2402 -4.58789 10.2402 -10.2402v-30.7197c0 -5.65234 -4.57715 -10.2402 -10.2402 -10.2402h-30.7197v20.4805h-20.4795v-20.4805h-20.4805v20.4805h-20.4795v-20.4805h-20.4805v20.4805h-20.4795v-20.4805h-20.4805v20.4805h-20.4805
v-20.4805h-20.4795v20.4805h-20.4805v-20.4805h-30.7197c-5.65234 0 -10.2402 4.58789 -10.2402 10.2402v30.7197c0 5.65234 4.58789 10.2402 10.2402 10.2402zM174.08 376.32h225.28v-139.2c0 -3.88086 -2.28906 -7.22949 -5.76074 -8.95996l-76.1592 -38.0801v-15.3604
l-61.4404 13.4404v1.91992l-76.1602 38.0801c-3.47168 1.74023 -5.75977 5.0791 -5.75977 8.95996v139.2zM112.96 208.32c1.22949 0.191406 2.55762 0.289062 3.83984 0l225.92 -49.6006l-20.7998 -107.52l-58.5596 12.4795s20.7998 50.8008 20.7998 62.7207
c0 14.1309 -11.459 25.5996 -25.6006 25.5996c-14.1406 0 -25.5996 -11.4688 -25.5996 -25.5996c0 -7.08691 3.02246 -13.3057 7.67969 -17.9199c2.06836 5.30566 8.32031 21.7598 8.32031 21.7598c1.30957 3.58301 5.4668 6.59375 9.28027 6.71973
c0.118164 0.00488281 0.310547 0.00878906 0.428711 0.00878906c5.65332 0 10.2412 -4.58789 10.2412 -10.2412c0 -1.10156 -0.335938 -2.82617 -0.75 -3.84766c0 0 -28.7041 -73.2217 -40.3203 -104c-4.63867 -12.3018 -3.00879 -19.6924 -0.639648 -24.6396
c2.36816 -4.94824 5.12012 -6.7207 5.12012 -6.7207c2.33203 -1.7041 4.22461 -5.43066 4.22461 -8.31934c0 -5.68848 -4.61621 -10.3047 -10.3047 -10.3047c-1.85742 0 -4.58105 0.888672 -6.08008 1.98438c0 0 -6.72852 5.06055 -11.2002 14.4004
s-6.71973 23.666 -0.320312 40.6396c5.16113 13.6748 9.81055 25.6621 17.6006 45.7598l-24 5.12012c-26.1123 -9.24609 -24.8115 -23.3184 -23.04 -41.2803c0.921875 -9.30762 1.62012 -18.2188 -2.24023 -25.9199c-3.94238 -7.88477 -9.7207 -11.0771 -14.4004 -13.7598
c-6.94238 -3.95215 -13.9385 -8.18164 -16.96 -39.6797c-0.5625 -6.00098 -3.69336 -10.8984 -8.63965 -14.4004c-6.01074 -4.23926 -14.541 -5.75977 -23.04 -5.75977c-11.9912 0 -23.7695 2.68066 -27.2002 3.51953c-2.77441 0.697266 -5.02734 2.63184 -6.39941 5.12012
c-1.41309 2.56055 -33.7383 63.4521 27.1992 146.561c3.70703 5.0791 7.73145 12.9053 5.12012 20.7998c-2.41602 7.28027 -9.86328 12.9404 -20.7998 16.3203c-2.63184 0.819336 -4.83008 2.67188 -6.08008 5.12012c-1.25977 2.43652 -1.50977 5.37793 -0.639648 8
l7.04004 21.1191l-9.91992 2.88086l-2.87988 -10.5605l-19.8408 5.75977l11.5205 40.3203l19.8398 -5.44043l-2.87988 -10.5596l10.5596 -2.87988l6.40039 19.2002c1.22852 3.74023 4.31055 6.46484 8 7.04004zM375.36 165.44l18.5596 -4.16016
c2.67285 -0.522461 5.18359 -2.22754 6.71973 -4.48047c1.51562 -2.24219 1.79199 -4.69727 1.28027 -7.35938l-21.4395 -111.681c-0.953125 -4.89453 -5.10742 -8.31934 -9.9209 -8.31934c-0.644531 0 -1.27441 0.196289 -1.91992 0.319336l-18.5596 3.83984
c-2.67285 0.522461 -5.18359 2.22754 -6.71973 4.48047c-1.51562 2.24219 -2.1123 5.01758 -1.60059 7.67969l21.4404 111.36c1.06445 5.5498 6.60938 9.35449 12.1602 8.32031zM421.12 139.2c12.8818 -11.5205 19.2383 -31.8545 15.04 -53.4404
c-4.16797 -21.5449 -17.5264 -38.3027 -33.9199 -44.1602z" />
    <glyph glyph-name="pickup" unicode="&#xf117;" 
d="M234.462 350.154c0.169922 0.00488281 0.445312 0.00878906 0.616211 0.00878906c1.37988 0 3.58496 -0.279297 4.92188 -0.625h53.5381c17.5361 0 30.2344 -8.25879 34.4619 -11.0762c0.52832 -0.311523 1.35547 -0.862305 1.8457 -1.23145
c44.5752 -37.1455 64.9561 -82.6445 70.1543 -95.3848c31.4824 -9.43164 75.5068 -23.7324 105.846 -33.8457c5.9082 -5.90723 6.1543 -75.0771 6.1543 -75.0771c0 -11.8154 -7.87695 -19.6924 -19.6924 -19.6924h-19.6924
c-3.93848 35.4463 -33.4766 60.9238 -68.9229 60.9238s-64.9844 -27.4463 -68.9229 -60.9238h-137.847c-3.93848 35.4463 -33.4766 60.9238 -68.9229 60.9238s-64.9844 -27.4463 -68.9229 -60.9238h-39.3848c-11.8154 0 -19.6924 7.87695 -19.6924 19.6924v98.4619
c0 11.8154 7.87695 19.6924 19.6924 19.6924h31.3848h67.0771v59.0771c0 20.3486 16.6289 39.3838 39.3838 39.3838h74.4619c0.667969 0.213867 1.77148 0.490234 2.46191 0.616211zM157.538 310.154v-59.0771h59.0771v59.0771h-59.0771zM256 310.154v-59.0771h95.3848
c-9.72949 16.3438 -24.7656 37.0664 -45.5391 54.7686c-7.58789 5.05957 -2.27344 4.30859 -12.3076 4.30859h-37.5381zM128 152.615c27.1895 0 49.2305 -22.041 49.2305 -49.2305s-22.041 -49.2305 -49.2305 -49.2305s-49.2305 22.041 -49.2305 49.2305
s22.041 49.2305 49.2305 49.2305zM403.692 152.615c27.1895 0 49.2305 -22.041 49.2305 -49.2305s-22.041 -49.2305 -49.2305 -49.2305s-49.2305 22.041 -49.2305 49.2305s22.041 49.2305 49.2305 49.2305z" />
    <glyph glyph-name="spectrophotometer-filled" unicode="&#xf13b;" 
d="M223.68 366.08h182.4c2.35059 0 4.77441 -0.273438 7.04004 -0.639648c4.54688 -0.750977 8.91797 -2.19434 13.1201 -4.16016c2.07031 -1.00488 4.11914 -2.24512 6.08008 -3.52051c4.66211 -2.85645 9.32715 -6.10254 13.4395 -9.91992
c11.2598 -10.4531 20.9482 -23.7861 29.1201 -38.0801c8.17188 -14.293 14.8711 -29.4834 19.5205 -42.8799c4.64844 -13.3965 7.35938 -24.6523 7.35938 -33.9199c0 -14.7402 -2.49121 -34.0303 -11.5195 -50.8799c-7.94043 -14.8184 -22.4854 -27.5381 -42.8799 -30.4004
l-32.6406 -114.239c-5.00684 -17.4902 -21.1738 -29.7607 -39.3594 -29.7607h-53.1201c-0.235352 -10.6582 -8.75781 -20.4795 -20.1602 -20.4795h-92.1602c-11.4023 0 -19.9248 9.82129 -20.1602 20.4795h-65.5996c-17.2441 0 -32.9043 10.96 -38.7197 27.2002
l-11.5205 32.3203c25.2725 -7.44434 57.2344 -8.32031 69.4404 -8.32031c5.66211 0 10.2393 4.58789 10.2393 10.2402s-4.57715 10.2402 -10.2393 10.2402c-35.5332 0 -66.3506 5.49609 -78.7207 13.7598l-8.31934 22.7197c21.0322 -9.49219 51.2607 -16 87.04 -16
c5.66211 0 10.2393 4.58789 10.2393 10.2402s-4.57715 10.2402 -10.2393 10.2402c-61.123 0 -95.8799 20.8027 -98.8799 28.7998l-12.4805 34.5596c-1.61719 1.22949 -3.32227 2.5166 -4.7998 3.83984c-10.0977 9.04297 -16.96 20.9062 -16.96 34.5605
c0 22.8867 11.126 45.1865 24.3193 69.4395c0.357422 0.77832 0.87793 1.4707 1.28027 2.24023c0.393555 0.885742 1.25391 2.17578 1.91992 2.87988c0.0751953 0.124023 0.244141 0.197266 0.320312 0.320312c0.161133 0.275391 0.448242 0.705078 0.639648 0.959961
c25.4873 39.7432 110.169 68.1602 184.96 68.1602zM235.52 325.12l-10.2393 -71.6797h174.08l-20.4805 71.6797h-143.36zM471.04 269.76c-0.0224609 -17.207 -1.36719 -35.1621 -12.7998 -46.7197c-6.87109 -6.93262 -16.2715 -10.5596 -28.1602 -10.5596h-307.2
c-0.388672 0 -0.901367 -0.0410156 -1.28027 0c-3.0791 0.354492 -63.0449 7.7832 -83.8398 38.7197c-4.37598 -10.9004 -7.04004 -20.6523 -7.04004 -29.1201c0 -7.25586 2.88477 -13.2197 9.91992 -19.5205c7.03613 -6.2998 18.1777 -12.2461 32 -16.96
c27.6465 -9.42676 65.9053 -14.0801 104 -14.0801h262.08c17.9307 0 27.0459 7.92773 33.6006 20.1602c6.55371 12.2324 8.95996 28.9863 8.95996 41.2803c0 4.24902 -2.17383 15.0225 -6.40039 27.2002c-1.05664 3.04395 -2.54492 6.3584 -3.83984 9.59961zM256 110.08
c-2.10449 0 -3.99219 -1.2627 -4.7998 -3.2002l-41.2803 -99.2002h92.1602l-41.2803 99.2002c-0.807617 1.9375 -2.69531 3.2002 -4.7998 3.2002z" />
    <glyph glyph-name="bluetooth" unicode="&#xf103;" 
d="M246.08 430.72l16.96 -16.6396l112.64 -112.64l6.7207 -7.04004l-6.7207 -7.04004l-95.3594 -95.3604l95.3594 -95.3604l6.7207 -7.04004l-6.7207 -7.04004l-112.64 -112.64l-16.96 -16.6396v23.6797v180.8l-85.4404 -85.4395l-14.0801 14.0801l99.5205 99.5195v12.1602
l-99.5205 99.5195l14.0801 14.0801l85.4404 -85.4395v180.8v23.6797zM265.92 383.04v-176.64l0.320312 -0.320312l88.3193 88.3203zM266.24 177.92l-0.320312 -0.320312v-176.64l88.6396 88.6396z" />
    <glyph glyph-name="change-user-male" unicode="&#xf131;" 
d="M256 448c124.307 0 225.28 -100.974 225.28 -225.28c0 -59.415 -23.167 -113.67 -60.7998 -153.92c-1.69824 -2.19434 -5.32715 -3.97461 -8.10059 -3.97461c-5.65332 0 -10.2412 4.58789 -10.2412 10.2412c0 2.61914 1.62207 6.12012 3.62109 7.81348
c34.2314 36.6113 55.04 85.7148 55.04 139.84c0 113.241 -91.5596 204.8 -204.8 204.8c-113.241 0 -204.8 -91.5586 -204.8 -204.8c0 -51.9199 19.4326 -98.9707 51.2002 -135.04v60.1602l-0.000976562 0.0791016c0 4.98535 4.01465 9.53809 8.96094 10.1611
c0.351562 0.0439453 0.924805 0.0800781 1.2793 0.0800781c5.65234 0 10.2402 -4.58789 10.2402 -10.2412v-0.0791016v-78.7197v-10.2402h-10.2402h-78.7197c-0.0400391 0 -0.104492 -0.000976562 -0.144531 -0.000976562c-5.65332 0 -10.2412 4.58789 -10.2412 10.2412
s4.58789 10.2412 10.2412 10.2412l0.144531 -0.000976562h48.3203c-32.1895 38.9678 -51.5205 88.8896 -51.5205 143.359c0 124.307 100.974 225.28 225.28 225.28zM254.72 372.16h0.320312c22.3447 0 41.7314 -5.25391 52.4795 -19.2002
c16.5527 -3.35742 29.6699 -11.5312 37.7607 -22.7197c8.82812 -12.21 12.6104 -26.8936 13.7598 -41.6006c2.10547 -26.9443 -4.28027 -53.2012 -9.28027 -69.4395c4.65234 -5.72266 8.38965 -13.1162 7.04004 -24.3203
c-1.50879 -12.5859 -4.98047 -21.541 -9.91992 -27.8398c-2.64551 -3.37305 -6.06055 -3.77832 -9.28027 -5.44043c-1.77246 -10.6758 -4.91699 -21.4336 -9.2793 -30.3994c-2.50195 -5.13965 -5.19434 -9.89453 -8 -13.7598
c-1.24219 -1.71191 -3.14941 -2.71191 -4.48047 -4.16016c-0.0693359 -12.7393 -0.162109 -23.3018 0.959961 -36.7998c3.39355 -7.93555 11.2578 -14.2578 23.6807 -20.4805c12.9473 -6.48535 29.6836 -12.4883 46.7197 -19.8398s34.4551 -16.3105 48.3193 -30.4004
c13.8652 -14.0889 23.752 -33.4102 25.2803 -58.8799l0.640625 -10.8799h-10.8809h-389.119h-10.8809l0.640625 10.8799c1.53125 25.4785 11.3613 44.793 25.2803 58.8799c13.918 14.0869 31.5391 23.0498 48.6396 30.4004s34.043 13.3506 47.04 19.8398
c12.5928 6.28711 20.3496 12.7676 23.6797 20.7998c1.08887 13.3174 1.02734 23.8477 0.959961 36.4805c-1.33984 1.43555 -3.21484 2.45508 -4.47949 4.16016c-2.85742 3.84961 -5.74512 8.61816 -8.32031 13.7598c-4.48145 8.94531 -7.46484 19.6904 -9.28027 30.3994
c-3.30566 1.66113 -6.8877 1.98145 -9.59961 5.44043c-4.9375 6.29785 -8.40625 15.2559 -9.91992 27.8398c-1.38379 11.5635 2.47266 19.2529 7.35938 24.96c-9.06836 37.3574 -11.8711 73.4893 0.640625 102.08c13.1367 30.0205 43.6816 49.3594 91.5195 50.2402z
M255.04 351.68c-42.5801 -0.863281 -62.96 -15.2266 -72.96 -38.0801c-10.0283 -22.917 -8.36035 -56.6582 1.28027 -93.7598l1.91992 -7.35938l-6.7207 -4.16016c0.442383 0.268555 -3.89746 -2.69336 -2.87988 -11.2002
c1.20996 -10.0566 3.59863 -15.251 5.44043 -17.6006c1.8418 -2.34863 2.80176 -2.2334 2.87988 -2.23926l8.63965 -0.640625l0.959961 -8.31934c0.935547 -8.76855 4.3916 -19.6787 8.64062 -28.1602c2.12402 -4.24121 4.46777 -7.95605 6.39941 -10.5605
c1.93262 -2.60352 4.125 -4.00488 3.2002 -3.51953l5.44043 -2.87988v-6.08008c0 -14.8291 0.594727 -27.0068 -0.959961 -44.1602l-0.320312 -1.28027l-0.320312 -1.2793c-5.85059 -15.7354 -19.6406 -25.5117 -34.5596 -32.96
c-14.9199 -7.44922 -31.8975 -12.9189 -48 -19.8408c-16.1025 -6.9209 -31.0088 -15.1973 -41.9199 -26.2393c-8.67285 -8.77832 -14.0645 -20.3818 -16.96 -34.8799h363.52c-2.88672 14.5049 -8.32422 26.1045 -16.96 34.8799
c-10.8633 11.0391 -25.5645 19.3203 -41.5996 26.2393c-16.0352 6.91992 -33.1299 12.3916 -48 19.8408c-14.8711 7.44824 -28.3945 17.2422 -34.2402 32.96l-0.639648 1.2793v1.28027c-1.55469 17.167 -0.959961 29.3467 -0.959961 44.1602v6.08008l5.43945 2.87988
c-0.973633 -0.512695 1.00098 0.930664 2.87988 3.51953s4.01562 6.31836 6.08008 10.5605c4.12891 8.48438 7.69141 19.3047 8.64062 28.1602l0.959961 8.31934l8.63965 0.640625c0.078125 0.00585938 1.03809 -0.108398 2.87988 2.23926
c1.8418 2.34863 4.23535 7.5459 5.44043 17.6006c1.02441 8.50488 -3.32227 11.4678 -2.87988 11.2002l-7.04004 4.16016l2.55957 8c4.4541 13.3955 11.5205 41.9873 9.59961 66.5596c-0.959961 12.2861 -4.16113 23.3965 -9.91992 31.3604
c-5.75781 7.96289 -13.916 13.6982 -28.1592 15.6797l-4.80078 0.639648l-2.55957 4.16016c-3.80176 6.67676 -17.1436 12.7246 -37.7598 12.7998h-0.320312z" />
    <glyph glyph-name="checkmark-filled" unicode="&#xf12d;" 
d="M429.44 359.68c0.275391 0.0136719 0.723633 0.0244141 0.999023 0.0244141c11.3066 0 20.4824 -9.17578 20.4824 -20.4814c0 -3.48926 -1.5957 -8.66016 -3.56152 -11.543l-205.761 -314.239c-3.34375 -5.14648 -11.0371 -9.32227 -17.1748 -9.32227
c-4.13867 0 -10.0635 2.16895 -13.2246 4.8418l-142.72 123.521c-4.60156 3.38867 -8.33496 10.7764 -8.33496 16.4912c0 11.3057 9.17578 20.4814 20.4814 20.4814c4.79883 0 11.3994 -2.80176 14.7334 -6.25293l124.8 -107.84l192.64 294.72
c3.18555 5.08789 10.6406 9.38867 16.6406 9.59961z" />
    <glyph glyph-name="motorcycle" unicode="&#xf11d;" 
d="M313.846 380.308c0.257812 0.0166016 0.674805 0.0292969 0.932617 0.0292969c6.6123 0 13.0879 -5.25098 14.4521 -11.7217c0 0 2.61035 -9.32715 6.1543 -20.9229h22.7695s13.7842 -0.246094 19.6914 -16c3.93848 -9.84668 12.3086 -35.5693 12.3086 -47.3848
c1.3291 -14.6211 -14.2588 -16.2051 -24.6162 -16c6.73438 -15.3135 14.0439 -30.7764 22.7695 -46.7695c9.87695 4.87793 21.0713 8 33.2305 8c61.0469 0 72.9854 -35.6924 67.0771 -35.6924c-4.13281 0 -8.70801 0.361328 -12.9229 0.616211
c19.501 -13.502 32.6152 -36.0029 32.6152 -61.5391c0 -41.3535 -33.7227 -75.0771 -75.0771 -75.0771c-41.3535 0 -75.0762 33.7236 -75.0762 75.0771c0 8.00098 1.98633 15.5439 4.30762 22.7695c-7.20215 -12.0703 -7.19336 -20.9229 -16 -20.9229
c-9.84668 0 -7.75391 23.6309 -1.84668 39.3848c4.26953 9.96191 10.9717 19.6455 19.0771 28.3076c-7.98828 14.2617 -15.4199 28.3174 -21.5381 41.8457c-12.085 -24.7725 -27.0215 -65.9561 -23.3848 -113.23c1.875 -20.625 -87.2256 -30.751 -114.462 -6.1543h-32.6152
c-8.02832 -38.5264 -41.9307 -67.0771 -83.0771 -67.0771c-47.2617 0 -84.9229 37.6621 -84.9229 84.9238s37.6611 84.9229 84.9229 84.9229c26.6738 0 49.7861 -12.5049 65.2305 -31.3848l20.3086 11.6924c-3.20996 3.71484 -6.64355 6.98242 -10.4619 9.8457
c-23.6309 17.7236 -51.3232 31.3848 -136 31.3848c-21.6611 0 -24 17.8467 -24 17.8467s8.12305 21.5381 75.0771 21.5381c47.2617 0 37.415 -8 49.2305 -27.6924c7.87695 -13.7842 23.7539 -11.6924 67.0771 -11.6924c17.7227 0 -4.06152 59.0771 120 59.0771
c0.984375 0 1.59668 0.411133 2.46094 0.615234c-5.24902 16.209 -8.74121 28.4814 -10.4609 35.0771c-8.68262 -3.71484 -18.501 -6.80078 -32 -17.8457c-2.40723 -2.50684 -7.17969 -4.54102 -10.6543 -4.54102c-8.15332 0 -14.7705 6.61816 -14.7705 14.7715
c0 4.52734 3.11914 10.1445 6.96289 12.5381c24.3398 19.915 53.5391 30.1543 53.5391 30.1543c0.973633 0.474609 2.62793 1.02637 3.69141 1.23047zM88.6152 190.154c-27.5693 0 -49.2305 -21.6621 -49.2305 -49.2314s21.6611 -49.2305 49.2305 -49.2305
c22.0781 0 40.3594 13.5371 46.7695 33.2305h-44.3076h-1.23145c-0.168945 -0.00683594 -0.445312 -0.0117188 -0.615234 -0.0117188s-0.445312 0.00488281 -0.615234 0.0117188c-0.254883 -0.0146484 -0.667969 -0.0263672 -0.922852 -0.0263672
s-0.668945 0.0117188 -0.922852 0.0263672c-0.0849609 -0.000976562 -0.222656 -0.00292969 -0.307617 -0.00292969s-0.223633 0.00195312 -0.307617 0.00292969c-0.693359 0.115234 -1.7959 0.390625 -2.46191 0.615234
c-0.0849609 -0.000976562 -0.222656 -0.00292969 -0.307617 -0.00292969s-0.222656 0.00195312 -0.307617 0.00292969c-0.693359 0.115234 -1.7959 0.390625 -2.46191 0.616211c-0.0849609 -0.00195312 -0.222656 -0.00390625 -0.307617 -0.00390625
s-0.222656 0.00195312 -0.307617 0.00390625c-0.18457 0.332031 -0.459961 0.882812 -0.615234 1.23047c-0.0849609 -0.00195312 -0.222656 -0.00292969 -0.307617 -0.00292969s-0.222656 0.000976562 -0.307617 0.00292969
c-0.174805 0.165039 -0.450195 0.44043 -0.615234 0.615234c-0.0849609 -0.00195312 -0.223633 -0.00292969 -0.308594 -0.00292969s-0.222656 0.000976562 -0.307617 0.00292969c-0.18457 0.332031 -0.459961 0.883789 -0.615234 1.23047
c-0.0849609 -0.000976562 -0.222656 -0.00292969 -0.307617 -0.00292969s-0.222656 0.00195312 -0.307617 0.00292969c-2.48242 2.53711 -4.49707 7.47754 -4.49707 11.0273c0 1.4082 0.360352 3.63672 0.804688 4.97266c0.212891 1.06152 0.764648 2.71582 1.23047 3.69238
c0.166016 0.174805 0.441406 0.450195 0.616211 0.615234c-0.00195312 0.0849609 -0.00292969 0.222656 -0.00292969 0.307617s0.000976562 0.223633 0.00292969 0.308594c0.628906 0.576172 1.73145 1.40234 2.46094 1.8457
c0.922852 0.824219 2.57715 1.92676 3.69238 2.46191c0.791016 0.606445 2.16992 1.43359 3.07715 1.8457l37.5381 21.5381c-8.63672 7.58398 -19.9795 12.3086 -32.6152 12.3086zM189.538 180.308l-20.3076 -11.6924c1.25293 -3.98535 2.41309 -8.07812 3.07715 -12.3076
h25.2305c-1.78809 8.44531 -4.9209 16.3848 -8 24zM433.23 174.154c-5.01367 0 -9.64453 -0.839844 -14.1533 -2.46191c7.86133 -10.8184 16.2852 -21.1846 25.2305 -30.7695c2.18066 -2.37793 3.9502 -6.92676 3.9502 -10.1533
c0 -8.29492 -6.73242 -15.0273 -15.0273 -15.0273c-3.64844 0 -8.61133 2.18359 -11.0762 4.87305c-9.40039 10.0723 -18.3975 20.6133 -26.4619 31.3848c-3.56836 -6.27344 -5.53809 -13.3008 -5.53809 -20.9229c0 -23.6309 19.4453 -43.6924 43.0762 -43.6924
s43.0771 20.0615 43.0771 43.6924s-19.4463 43.0771 -43.0771 43.0771z" />
    <glyph glyph-name="home" unicode="&#xf102;" 
d="M393.846 408h19.6924c10.8506 0 19.6924 -8.8418 19.6924 -19.6924v-153.846l68.3076 -68.3076c7.7002 -7.7002 7.7002 -20.0127 0 -27.6924c-3.83984 -3.84082 -8.49707 -6.1543 -13.5381 -6.1543s-10.3135 2.31348 -14.1543 6.1543l-217.846 217.846l-217.23 -217.23
c-7.7002 -7.7002 -19.9932 -7.7002 -27.6924 0c-7.7002 7.69922 -7.7002 19.9922 0 27.6924l230.769 231.385c7.7002 7.69922 20.6084 7.69922 28.3086 0l104 -104v94.1533c0 10.8506 8.82129 19.6924 19.6914 19.6924zM256 320l216.615 -216.615v-108.308
c0 -32.6104 -26.4658 -59.0771 -59.0771 -59.0771h-315.076c-32.6104 0 -59.0771 26.4668 -59.0771 59.0771v108.308zM216.615 132.923c-10.8506 0 -19.6924 -8.8418 -19.6924 -19.6924v-118.153c0 -10.8506 8.8418 -19.6924 19.6924 -19.6924h78.7695
c10.8506 0 19.6924 8.8418 19.6924 19.6924v118.153c0 10.8506 -8.8418 19.6924 -19.6924 19.6924h-78.7695z" />
    <glyph glyph-name="info-popup-filled" unicode="&#xf109;" 
d="M61.4404 417.28h389.119c16.9375 0 30.7207 -13.7832 30.7207 -30.7207v-20.4795h-450.561v20.4795c0 16.9375 13.7832 30.7207 30.7207 30.7207zM30.7197 345.6h450.561v-358.399c0 -5.66309 -4.57715 -10.2402 -10.2402 -10.2402h-169.92l-37.7598 -38.0801
c-1.99707 -1.99707 -4.73926 -2.87988 -7.36035 -2.87988s-5.36328 0.882812 -7.36035 2.87988l-37.7598 38.0801h-169.92c-5.65234 0 -10.2402 4.57715 -10.2402 10.2402v358.399zM243.52 295.36c-2.20117 0 -3.51953 -1.31836 -3.51953 -3.52051v-26.8799
c0 -2.20117 1.30859 -3.83984 3.51953 -3.83984h24.9609c2.19043 0 3.51953 1.63867 3.51953 3.83984v26.8799c0 2.20215 -1.31836 3.52051 -3.51953 3.52051h-24.9609zM244.16 221.44c-2.19141 0 -3.52051 -1.31836 -3.52051 -3.52051v-158.4
c0 -2.19043 1.31836 -3.51953 3.52051 -3.51953h23.6797c2.19141 0 3.52051 1.31836 3.52051 3.51953v158.4c0 2.20215 -1.29785 3.52051 -3.52051 3.52051h-23.6797z" />
    <glyph glyph-name="trash" unicode="&#xf12b;" 
d="M215.04 448h81.9199c16.8457 0 30.7197 -13.875 30.7197 -30.7197v-20.4805h102.4l0.144531 0.000976562c5.65332 0 10.2412 -4.58789 10.2412 -10.2412c0 -5.65234 -4.58789 -10.2402 -10.2412 -10.2402l-0.144531 0.000976562h-11.2002l-36.7998 -414.721
c-1.28027 -14.3281 -13.4658 -25.5996 -27.8398 -25.5996h-196.48c-14.3711 0 -26.5586 11.2637 -27.8398 25.5996l-36.7998 414.721h-11.2002c-0.132812 -0.00683594 -0.347656 -0.0117188 -0.479492 -0.0117188c-5.65918 0 -10.252 4.59277 -10.252 10.251
c0 5.40039 4.37793 9.9873 9.77148 10.2402c0.132812 0.00683594 0.347656 0.0117188 0.480469 0.0117188c0.131836 0 0.34668 -0.00488281 0.479492 -0.0117188h18.5605c0.524414 0.100586 1.38477 0.181641 1.91992 0.181641
c0.53418 0 1.39453 -0.0810547 1.91992 -0.181641h80v20.4805c0 16.8447 13.874 30.7197 30.7197 30.7197zM215.04 427.52c-5.76465 0 -10.2402 -4.47461 -10.2402 -10.2393v-20.4805h102.4v20.4805c0 5.76465 -4.47559 10.2393 -10.2402 10.2393h-81.9199zM113.6 376.32
l36.8008 -413.12c0.316406 -3.54297 4.11816 -6.71973 7.35938 -6.71973h196.48c3.25781 0 7.04297 3.16895 7.35938 6.71973l36.8008 413.12h-284.801zM193.6 345.92c0.266602 0.0253906 0.699219 0.0458984 0.96582 0.0458984
c5.65332 0 10.2412 -4.58789 10.2412 -10.2412c0 -0.100586 -0.00292969 -0.263672 -0.00683594 -0.364258v-337.92l0.000976562 -0.145508c0 -5.65234 -4.58789 -10.2412 -10.2412 -10.2412c-5.65234 0 -10.2402 4.58887 -10.2402 10.2412l0.000976562 0.145508v337.92
c-0.00195312 0.0673828 -0.00292969 0.177734 -0.00292969 0.246094c0 4.52734 3.58496 9.00391 8.00293 9.99316c0.347656 0.111328 0.920898 0.254883 1.2793 0.320312zM255.04 345.92c0.265625 0.0253906 0.698242 0.0458984 0.96582 0.0458984
c5.65234 0 10.2402 -4.58789 10.2402 -10.2412c0 -0.100586 -0.00292969 -0.263672 -0.00585938 -0.364258v-337.92l0.000976562 -0.145508c0 -5.65234 -4.58789 -10.2412 -10.2412 -10.2412s-10.2412 4.58887 -10.2412 10.2412l0.000976562 0.145508v337.92
l-0.00292969 0.246094c0 4.52734 3.58594 9.00391 8.00293 9.99316c0.347656 0.111328 0.920898 0.254883 1.28027 0.320312zM316.48 345.92c0.265625 0.0253906 0.698242 0.0458984 0.964844 0.0458984c5.65332 0 10.2412 -4.58789 10.2412 -10.2412
c0 -0.100586 -0.00292969 -0.263672 -0.00683594 -0.364258v-337.92l0.000976562 -0.145508c0 -5.65234 -4.58789 -10.2412 -10.2402 -10.2412c-5.65332 0 -10.2412 4.58887 -10.2412 10.2412l0.000976562 0.145508v337.92l-0.00292969 0.246094
c0 4.52734 3.58496 9.00391 8.00293 9.99316c0.347656 0.111328 0.920898 0.254883 1.28027 0.320312z" />
    <glyph glyph-name="checked-user-male" unicode="&#xf133;" 
d="M224.32 443.84c24.5762 0 43.9033 -5.95215 53.1201 -18.2402c17.4072 -3.07129 30.7832 -12.5439 40 -26.8799c21.5039 -33.792 9.34375 -85.7598 3.19922 -106.239c4.09668 -6.14453 7.10449 -14.3369 6.08008 -25.6006
c-2.04785 -22.5283 -11.3916 -31.7441 -18.5596 -35.8398c-3.07227 -17.4082 -11.2637 -38.1436 -20.4805 -47.3604v-36.7998c6.14453 -14.3359 26.6885 -22.4639 50.2402 -31.6797c29.6963 -11.2646 64.5117 -25.4717 81.9199 -58.2402l-12.1602 -15.3604l-5.12012 5.12012
c-14.3359 26.624 -44.2881 38.6562 -72.96 49.9199c-27.6475 11.2646 -53.1836 21.5684 -62.3994 45.1201l-0.959961 2.24023v51.2002l5.12012 2.87988c4.0957 2.04785 14.2715 22.4639 16.3193 41.9199l0.959961 8.32031l8.32031 0.959961
c1.02441 0 6.27246 3.13574 8.32031 19.5195c1.02344 8.19238 -3.2002 11.2002 -3.2002 11.2002l-6.08008 4.16016l1.91992 9.28027c7.16797 23.5518 16.3203 69.4395 0.959961 95.04c-6.14355 9.21582 -16.1279 15.5518 -29.4395 17.5996l-5.12012 0.959961
l-2.24023 4.16016c-4.0957 8.19141 -18.3037 13.1201 -37.7598 13.1201c-30.7207 -1.02441 -53.3125 -10.1768 -65.6006 -26.5605c-16.3838 -21.5039 -18.3682 -58.4316 -6.08008 -106.56l1.91992 -7.04004l-6.0791 -4.16016s-4.22461 -3.00781 -3.2002 -11.2002
c2.04785 -15.3594 7.2959 -19.5195 8.31934 -19.5195l8.32031 -0.959961l0.959961 -8.32031c2.04785 -19.4561 12.2236 -38.8477 16.3203 -41.9199l5.12012 -2.87988v-6.40039v-44.7998l-0.959961 -2.24023c-8.19238 -23.5518 -34.752 -33.8555 -62.4004 -45.1201
c-34.8164 -13.3115 -70.8477 -27.5195 -79.04 -68.4795h287.68l22.7207 -20.4805h-332.801l0.960938 11.2002c4.0957 61.4404 53.2471 80.96 92.1592 96.3203c23.5527 9.21582 44.0967 17.3438 50.2402 31.6797v36.7998c-9.21582 9.2168 -17.4082 29.9521 -20.4795 47.3604
c-7.16797 4.0957 -15.4883 13.3115 -18.5605 35.8398c-1.02344 11.2637 2.24023 19.4561 7.36035 25.6006c-12.2881 52.2236 -8.25586 92.1592 11.2002 117.76c16.3838 21.5039 44.0312 32.5762 81.9199 33.5996zM496 121.28l16 -12.4805l-6.40039 -8l-85.7598 -109.76
l-6.71973 -8.32031l-8.32031 7.04004l-63.3594 55.3604l-7.68066 6.71973l13.4404 15.3604l7.67969 -6.71973l55.3604 -48.3203l79.3594 101.12z" />
    <glyph glyph-name="pause" unicode="&#xf135;" 
d="M122.88 366.08h10.2402h81.9199h10.2402v-10.2402v-327.68v-10.2402h-10.2402h-81.9199h-10.2402v10.2402v327.68v10.2402zM286.72 366.08h10.2402h81.9199h10.2402v-10.2402v-327.68v-10.2402h-10.2402h-81.9199h-10.2402v10.2402v327.68v10.2402zM143.36 345.6
v-307.199h61.4395v307.199h-61.4395zM307.2 345.6v-307.199h61.4395v307.199h-61.4395z" />
    <glyph glyph-name="find-user-male" unicode="&#xf134;" 
d="M204.16 443.84c24.8828 0 43.4531 -6.34375 53.1201 -18.5596c17.5303 -3.46094 30.8838 -12.3877 39.6797 -26.5605c20.9922 -33.792 8.81934 -86.6143 2.87988 -106.88c4.48535 -5.63184 7.74121 -14.1084 6.40039 -25.2803
c-2.69336 -22.4658 -11.6816 -31.792 -18.8799 -35.5195c-3.45117 -17.7764 -12.8848 -37.6504 -22.0801 -47.04v-4.7998c-0.0927734 -10.373 -0.34375 -19.4277 0.639648 -31.04c0.808594 -1.86426 1.86914 -3.69922 3.2002 -5.44043
c-3.1748 -3.15332 -8.54004 -12.3975 -11.5205 -17.5996c-4.66895 4.68945 -8.66992 10.1602 -11.1992 16.96l-0.640625 2.55957c-1.20801 13.3428 -1.05176 23.6855 -0.959961 34.5605v15.6797l5.44043 2.87988c4.10645 2.86719 15.9336 23.665 17.9199 42.2402
l0.639648 8.32031l8.64062 0.639648c1.31055 0.0917969 6.38379 3.76367 8.31934 19.8398c0.993164 8.26367 -2.83887 11.1699 -2.87988 11.2002l-6.71973 4.48047l2.24023 7.67969c7.85352 23.6436 17.0078 70.3564 1.2793 95.6797
c-6.27637 10.1074 -16.0791 16.0156 -29.7598 17.9199l-4.7998 0.640625l-2.56055 4.15918c-4.57715 8.03906 -18.8594 13.1201 -38.0791 13.1201c-30.9043 -0.573242 -53.1924 -9.4668 -65.9209 -26.2393c-16.332 -21.5146 -18.1807 -58.0791 -5.75977 -105.921
l1.91992 -7.35938l-6.71973 -4.16016c-0.0205078 -0.00976562 -3.87305 -2.94629 -2.87988 -11.2002c1.93555 -16.0762 7.00879 -19.7373 8.32031 -19.8398l8.63965 -0.639648l0.959961 -8.32031c1.96582 -18.4629 13.7549 -39.1982 18.2402 -42.2402l5.43945 -2.87988
v-6.08008v-9.59961c0.0927734 -10.916 0.249023 -21.1768 -0.959961 -34.5605l-0.639648 -2.55957c-8.81641 -23.6953 -35.3125 -34.0918 -63.3604 -45.1201c-35.2051 -13.8447 -71.6182 -28.168 -79.3594 -68.7998h232s3.99805 -10.2402 14.7197 -20.4805h-269.12
l0.639648 10.8799c3.73828 62.127 53.4229 81.5518 93.4404 97.2803c24.0537 9.46191 44.9326 17.9326 51.2002 32.3203c0.982422 11.6533 1.05176 20.6357 0.959961 31.04v4.7998c-9.43164 9.40039 -19.2285 29.2842 -22.7207 47.04
c-7.19824 3.7168 -16.1758 13.043 -18.8799 35.5195c-1.37207 11.3877 2.10254 19.958 6.7207 25.6006c-12.5137 51.9678 -8.9248 91.6582 10.8799 117.76c16.7012 22.0156 44.2363 33.2344 81.9199 33.9199zM368.64 181.76c56.4326 0 102.4 -45.9668 102.4 -102.399
c0 -24.5254 -8.59082 -46.9824 -23.04 -64.6406l61.1201 -61.1201l-14.7197 -14.7197l-61.1201 61.1201c-17.6582 -14.4492 -40.1152 -23.04 -64.6406 -23.04c-56.4326 0 -102.399 45.9678 -102.399 102.4s45.9668 102.399 102.399 102.399zM368.64 161.28
c-45.3643 0 -81.9199 -36.5557 -81.9199 -81.9199c0 -45.3652 36.5557 -81.9199 81.9199 -81.9199c45.3652 0 81.9199 36.5547 81.9199 81.9199c0 45.3643 -36.5547 81.9199 -81.9199 81.9199z" />
    <glyph glyph-name="paint-sprayer-2" unicode="&#xf110;" 
d="M161.92 448c0.132812 0.00585938 0.347656 0.0117188 0.480469 0.0117188c0.131836 0 0.347656 -0.00585938 0.479492 -0.0117188c0.132812 0.00585938 0.347656 0.0117188 0.480469 0.0117188c0.131836 0 0.347656 -0.00585938 0.479492 -0.0117188h245.76
c5.65234 -0.000976562 10.2402 -4.58789 10.2402 -10.2402v-40.96c0 -5.65137 -4.58789 -10.2393 -10.2402 -10.2402h-10.2393v-149.439c-0.0839844 -3.44141 -2.66504 -7.45508 -5.76074 -8.95996l-76.1592 -38.0801v-25.9199l45.4395 -9.91992l0.639648 2.87988
c0.59668 3.70215 4.03711 7.42969 7.68066 8.32031c0.567383 0.117188 1.5 0.212891 2.08008 0.212891s1.51172 -0.0957031 2.08008 -0.212891l30.3994 -5.76074c4.70898 -0.797852 8.53027 -5.32129 8.53027 -10.0967c0 -0.575195 -0.09375 -1.49902 -0.209961 -2.06348
l-0.639648 -2.87988c8.00684 -4.20898 14.2148 -11.207 18.2393 -19.5195c5.51367 -11.3877 7.23438 -25.1475 4.48047 -39.3604c-2.75488 -14.209 -9.50781 -26.3799 -18.8799 -34.8799c-6.7832 -6.15137 -15.0498 -10.583 -24 -11.5195l-0.640625 -3.52051
c-0.875977 -4.59375 -5.38281 -8.32129 -10.0596 -8.32129c-0.0498047 0 -0.129883 0.000976562 -0.179688 0.000976562c-0.539062 0.0380859 -1.39844 0.181641 -1.91992 0.320312l-30.4004 5.75977c-4.53809 0.913086 -8.22168 5.41113 -8.22168 10.04
c0 0.591797 0.0986328 1.54199 0.22168 2.12012l0.320312 0.959961l-79.04 16.96l6.39941 19.5205l76.1602 -16.3203l12.7998 67.2002l-237.12 52.1602l-14.0801 -41.9199c12.207 -5.88867 20.6953 -14.9121 24.3203 -25.9199
c4.18848 -12.626 1.58691 -26.7139 -7.67969 -39.3604c-44.8613 -61.1836 -32.6807 -107.246 -27.5205 -120.64c12.7598 -2.46777 26.1279 -2.60156 28.8008 0c3.48145 38.502 14.9014 48.0146 27.1992 55.04c3.86035 2.20117 5.00488 3.28906 6.08008 5.43945
c1.20898 2.42676 0.573242 8.68652 0 14.4004c-1.83301 18.5645 -4.8125 49.7559 39.6807 64c1.69922 0.541992 3.34766 0.708984 5.11914 0.319336l30.4004 -6.39941c3.64648 9.37305 8.29004 21.1006 9.91992 25.2803c-1.92578 2.8584 -3.2002 6.18945 -3.2002 9.91992
c0 9.94727 7.97266 18.2393 17.9199 18.2393c9.94824 0 17.9209 -8.29199 17.9209 -18.2393c0 -8.46582 -5.91016 -15.3711 -13.7607 -17.2803c-5.90625 -15.082 -24.8057 -63.5371 -34.8799 -90.2402c-4.63867 -12.3027 -3.00781 -19.6953 -0.639648 -24.6396
s5.12012 -6.7207 5.12012 -6.7207c2.73633 -1.64746 4.95703 -5.57812 4.95703 -8.77246c0 -5.65332 -4.58789 -10.2412 -10.2412 -10.2412c-2.04688 0 -4.9834 1.06348 -6.55566 2.37402c0 0 -7.04785 5.0625 -11.5205 14.4004s-6.71973 23.666 -0.320312 40.6396
c5.16113 13.6797 9.81055 25.6631 17.6006 45.7598l-24 5.12012c-26.1123 -9.23633 -24.8115 -23.3184 -23.04 -41.2803c0.921875 -9.29785 1.62012 -18.209 -2.24023 -25.9199c-3.94238 -7.88477 -9.7207 -11.0869 -14.4004 -13.7598
c-6.94238 -3.96289 -13.9385 -8.1709 -16.96 -39.6797c-0.5625 -5.99023 -3.69336 -10.8984 -8.63965 -14.4004c-6.01074 -4.24902 -14.541 -5.75977 -23.04 -5.75977c-11.9912 0 -23.7695 2.66992 -27.2002 3.51953c-2.77441 0.697266 -5.02734 2.62207 -6.39941 5.12012
c-1.41309 2.56055 -33.7383 63.4521 27.1992 146.561c3.70703 5.06836 7.73145 12.8945 5.12012 20.7998c-2.41602 7.28027 -9.86328 12.9404 -20.7998 16.3203c-2.63184 0.819336 -4.83008 2.67188 -6.08008 5.12012c-1.25977 2.43652 -1.50977 5.38867 -0.639648 8
l7.04004 21.1191l-9.91992 2.88086l-2.87988 -10.5605l-19.8408 5.75977l11.5205 40.3203l19.8398 -5.44043l-2.87988 -10.5596l10.5596 -2.87988l6.40039 19.2002c1.63867 4.98633 6.70996 8.19727 11.8398 7.04004l139.2 -30.7207v12.4805l-76.1602 38.0801
c-3.0957 1.50488 -5.67578 5.51855 -5.75977 8.95996v149.439h-10.2402c-5.65137 0.000976562 -10.2393 4.58887 -10.2402 10.2402v40.96l-0.000976562 0.180664c0 4.67676 3.72754 9.18262 8.32129 10.0596zM174.08 427.52v-20.4795h20.4795v10.2402h20.4805v-10.2402
h20.4795v10.2402h20.4805v-10.2402h20.4805v10.2402h20.4795v-10.2402h20.4805v10.2402h20.4795v-10.2402h20.4805v10.2402h20.4795v-10.2402h20.4805v20.4795h-225.28zM194.56 386.56v-143.04l76.1602 -38.0791c3.17969 -1.54785 5.76074 -5.67285 5.76074 -9.20898
v-0.0712891v-23.04l20.4795 -4.48047v27.5205v0.0712891c0 3.53613 2.58008 7.66113 5.75977 9.20898l76.1602 38.0791v143.04h-184.32zM381.44 143.36l-0.640625 -3.2002l-16.6396 -87.3604l-0.320312 -0.959961l10.5605 -1.91992l17.5996 91.5205zM409.28 122.24
l-11.5205 -60.4805c1.95703 1.02832 3.81641 2.39746 5.75977 4.16016c5.6709 5.14258 10.834 13.5381 12.8008 23.6797c1.96582 10.1484 0.456055 19.6699 -2.87988 26.5605c-1.19336 2.46289 -2.60645 4.37598 -4.16016 6.08008z" />
    <glyph glyph-name="cloud-checked" unicode="&#xf104;" 
d="M256 336c62.8271 0 114.936 -41.1729 134.5 -97.5c49.6572 -3.53906 89.5 -43.9766 89.5 -94.5c0 -52.8262 -43.1738 -96 -96 -96h-256c-52.8262 0 -96 43.1738 -96 96c0 34.6426 20.3252 63.124 48 80c0 35.1572 28.8428 64 64 64c2.36328 0 4.32617 -0.741211 6.5 -1
c26.3311 29.2002 63.1328 49 105.5 49zM256 304c-36 0 -67.9697 -17.1777 -88.5 -43.5l-6 -8l-10 2.5c-2.77539 0.657227 -5.25977 1 -7.5 1c-17.8662 0 -32 -14.1338 -32 -32c0 -0.401367 0.166016 -1.90527 0.5 -4.5l1.5 -12l-11 -4.5
c-22.8535 -9.75781 -39 -32.4131 -39 -59c0 -35.5264 28.4736 -64 64 -64h256c35.5264 0 64 28.4736 64 64s-28.4736 64 -64 64c1.1377 0 0.385742 -0.305664 -3 -0.5l-13.5 -0.5l-3 12.5c-12.3145 48.4463 -56.0449 84.5 -108.5 84.5zM308.5 235.5l23 -23l-80 -80
l-11.5 -11l-11.5 11l-48 48l23 23l36.5 -36.5z" />
    <glyph glyph-name="suv" unicode="&#xf138;" 
d="M69.333 256h208c11.0293 0 25.9199 -0.864258 37.334 -14.667c17.5566 -21.2266 84 -99.333 84 -99.333c72.1914 -17.7705 113.333 -26.208 113.333 -49.333v-59.334c0 -6.62109 -12.0049 -20.4033 -22 -28c0.15625 -1.82324 0.666992 -3.46875 0.666992 -5.33301
c0 -35.3496 -28.6514 -64 -64 -64c-35.3496 0 -64 28.6504 -64 64h-192c0 -35.3496 -28.6514 -64 -64 -64c-35.3496 0 -64 28.6504 -64 64h-10.667c-15.957 0 -32 16.0322 -32 33.333v74c-0 17.0879 34.293 122.246 41.333 134c7.04004 11.7549 14.1973 14.667 28 14.667z
M140 222c-10.5176 0 -17.3389 -2.38965 -20.667 -10.667c-2.92188 -7.2959 -13.3379 -48.1543 -16.666 -64.666c-3.2002 -15.8301 4.27148 -18.667 14 -18.667h75.333v94h-52zM234.667 222v-94h124.666c8.46973 0 11.4297 4.37305 4.66699 13.333l-60.667 72
c-5.18359 6.03809 -14.4531 8.66699 -22.666 8.66699h-46zM106.667 32c-17.6426 0 -32 -14.3574 -32 -32s14.3574 -32 32 -32s32 14.3574 32 32s-14.3574 32 -32 32zM426.667 32c-17.6426 0 -32 -14.3574 -32 -32s14.3574 -32 32 -32s32 14.3574 32 32s-14.3574 32 -32 32z
" />
    <glyph glyph-name="add-user-male" unicode="&#xf12f;" 
d="M192 416c61.666 0 112 -50.334 112 -112c0 -38.541 -19.6982 -72.834 -49.5 -93c7.77832 -3.33008 15.4209 -7.05176 22.5 -11.5c21.0918 15.3047 47.0459 24.5 75 24.5c70.5029 0 128 -57.4971 128 -128s-57.4971 -128 -128 -128s-128 57.4971 -128 128
c0 30.3516 10.7383 58.5186 28.5 80.5c-18.0283 9.77441 -38.4834 15.5 -60.5 15.5c-70.8906 0 -128 -57.1094 -128 -128h-32c0 65.8994 40.4258 122.522 97.5 147c-29.8018 20.166 -49.5 54.459 -49.5 93c0 61.666 50.334 112 112 112zM192 384
c-44.3721 0 -80 -35.6279 -80 -80s35.6279 -80 80 -80s80 35.6279 80 80s-35.6279 80 -80 80zM352 192c-53.209 0 -96 -42.791 -96 -96s42.791 -96 96 -96s96 42.791 96 96s-42.791 96 -96 96zM336 160h32v-48h48v-32h-48v-48h-32v48h-48v32h48v48z" />
    <glyph glyph-name="info-popup" unicode="&#xf100;" 
d="M80 368h16h320h16v-16v-320v-16h-16h-105l-43.5 -43.5l-11.5 -11l-11.5 11l-43.5 43.5h-105h-16v16v320v16zM112 336v-288h96h6.5l5 -4.5l36.5 -36.5l36.5 36.5l5 4.5h6.5h96v288h-288zM240 288h32v-32h-32v32zM240 224h32v-128h-32v128z" />
    <glyph glyph-name="exit" unicode="&#xf130;" 
d="M80 400h16h256h16v-16v-46v-31l-17.5 -17l-14.5 -15v44.5v48.5h-224v-352h224v32v15.5v44.5h1l13.5 -14l17.5 -17v-13.5v-15.5v-48v-16h-16h-256h-16v16v384v16zM373.5 267.5l64 -64l11 -11.5l-11 -11.5l-64 -64l-23 23l36.5 36.5h-195v32h195l-36.5 36.5z" />
    <glyph glyph-name="forward" unicode="&#xf108;" 
d="M207.5 379.5l176 -176l11 -11.5l-11 -11.5l-176 -176l-23 23l164.5 164.5l-164.5 164.5z" />
    <glyph glyph-name="plus" unicode="&#xf11b;" 
d="M265.846 385.221c112.148 0 203.087 -90.9189 203.087 -203.066c0 -112.148 -90.9385 -203.087 -203.087 -203.087c-112.147 0 -203.066 90.9385 -203.066 203.087c0 112.147 90.9189 203.066 203.066 203.066zM374.154 152.615v59.0771h-78.7695v78.7695h-59.0771
v-78.7695h-78.7695v-59.0771h78.7695v-78.7695h59.0771v78.7695h78.7695z" />
    <glyph glyph-name="print-2" unicode="&#xf139;" 
d="M128 405.333h256v-85.333h-256v85.333zM128 298.667h256c46.9336 0 85.333 -38.4004 85.333 -85.334v-128h-85.333v-106.666h-256v106.666h-85.333v128c0 46.9336 38.3994 85.334 85.333 85.334zM405.333 256c-12.7998 0 -21.333 -8.5332 -21.333 -21.333
c0 -12.8008 8.5332 -21.334 21.333 -21.334c12.8008 0 21.334 8.5332 21.334 21.334c0 12.7998 -8.5332 21.333 -21.334 21.333zM170.667 128v-106.667h170.666v106.667h-170.666z" />
    <glyph glyph-name="paint-sprayer" unicode="&#xf10c;" 
d="M192 384h16h160h16v-32h-16v-80v-10l-9 -4.5l-55 -27.5v-22h96v16h32v-16v-16v-64v-16v-16h-32v16h-126.5c5.6709 -31.7803 26 -52.5 26 -52.5l-23 -23s-29.5898 29.4238 -35.5 75.5h-25.5c-3.25586 -4.28223 -7.5 -11.4551 -7.5 -23.5
c0 -8.68164 1.62891 -9.69434 5.5 -15.5s10.5 -17.0898 10.5 -32c0 -10.1641 -4.46875 -19.8242 -11 -26s-14.1162 -9.50391 -21.5 -11.5c-14.7676 -3.99316 -30.0957 -3.5 -40 -3.5h-12.5l-3 12.5s-8 32.6807 -8 56c0 17.1152 6.75879 31.6543 7.5 39.5
c0.15918 1.68164 0.0195312 2.53418 0 3c-0.301758 0.163086 -1.60156 1 -7.5 1h-16v16v64v16h16h144v22l-55 27.5l-9 4.5v10v80h-16v32zM240 352v-70l48 -24l48 24v70h-96zM64 192h32v-64h-32v64zM144 176v-34c6.17578 -1.75781 11.7676 -4.75391 16 -9.5
c7.60645 -8.53027 8.27148 -19.3291 7.5 -27.5c-1.54297 -16.3418 -7.5 -31.5195 -7.5 -36.5c0 -10.7139 2.91211 -24.7812 5 -35.5c6.39648 0.323242 13.1572 0.19043 18 1.5c4.23633 1.14551 7.05469 2.60645 8 3.5s1 0.59668 1 3c0 7.18652 -1.37109 7.80566 -5.5 14
s-10.5 17.8145 -10.5 33.5c0 31.3721 21 51 21 51l4.5 4.5h6.5h192v32h-256z" />
    <glyph glyph-name="online-support" unicode="&#xf11f;" 
d="M256 448c101.897 0 193.936 -59.125 193.846 -196.923h3.07715c32.6104 0 57.2314 -26.4473 57.2314 -59.0771v-39.3848c0 -24.458 -13.7812 -45.1816 -34.4619 -54.1533c-4.2334 -24.5137 -13.7695 -48.1426 -23.3848 -67.6924
c-12.7168 -25.8564 -25.8457 -44.3076 -25.8457 -44.3076c-1.13672 -1.9209 -3.61816 -4.40234 -5.53906 -5.53906c0 0 -11.3691 -5.82812 -32 -11.0771c-16.0098 -4.07324 -38.3027 -8.23535 -67.0771 -9.8457c-10.7266 -13.9023 -29.6738 -23.3848 -51.6914 -23.3848
c-33.6934 0 -60.9238 21.8281 -60.9238 48.6152s27.2305 48.6152 60.9238 48.6152c30.5176 0 55.1973 -17.9668 59.6914 -41.2305c21.8486 1.69531 38.8311 4.88477 51.0771 8c15.8271 4.02637 20.6016 6.58789 22.1543 7.38477
c2.05762 3.07227 10.4639 15.6562 20.9229 36.9229c7.25977 14.7607 14.1797 31.999 18.4619 48.6152h-3.07715c-9.30176 -7.625 -19.5371 -12.8838 -30.7695 -16c-6.67285 -21.9443 -16.8359 -41.1191 -30.1533 -56.6152
c-3.16797 -5.27344 -10.7314 -9.55273 -16.8828 -9.55273c-10.8711 0 -19.6943 8.82324 -19.6943 19.6943c0 5.07031 3.15332 11.8311 7.03809 15.0898c12.1426 14.1289 21.5361 31.3828 25.8467 51.6914c1.89062 8.43164 10.4365 15.3232 19.0762 15.3848
c1.67383 0 11.1504 3.7334 19.6924 10.4619v48.6152c-10.8691 0.000976562 -19.6904 8.82324 -19.6924 19.6924v16.6152c-0.0117188 0.254883 -0.0214844 0.667969 -0.0214844 0.922852s0.00976562 0.668945 0.0214844 0.923828
c-0.731445 13.1396 -2.34082 25.0674 -4.92285 36.3076c-68.7588 34.0039 -161.002 -25.7168 -192 65.8457c-23.4824 -69.1934 -46.1045 -54.0479 -73.2305 -63.3848c-2.9082 -11.8154 -4.73926 -24.71 -5.53809 -38.7686
c0.0117188 -0.254883 0.0214844 -0.668945 0.0214844 -0.923828s-0.00976562 -0.667969 -0.0214844 -0.922852v-16.6152c0.00292969 -0.142578 0.00585938 -0.373047 0.00585938 -0.515625c0 -10.8711 -8.82227 -19.6943 -19.6934 -19.6943
c-4.90918 0 -11.5283 2.98926 -14.7744 6.67188c-2.72949 -5.99219 -4.92285 -13.6387 -4.92285 -22.7695c0 -7.52344 6.56348 -19.085 16.6152 -28.3076s25.1934 -14.1543 22.7695 -14.1543c8.63965 -0.0615234 17.1855 -6.95312 19.0762 -15.3848
c6.63965 -31.3535 25.8428 -54.9961 48 -72c4.28125 -3.27344 7.75488 -10.3027 7.75488 -15.6914c0 -10.9053 -8.84961 -19.7549 -19.7549 -19.7549c-3.69141 0 -9.06738 1.81934 -12 4.0625c-24.6943 18.9502 -46.2188 47.3291 -57.2305 83.0762
c-12.7725 3.71289 -24.0303 10.7881 -35.0771 20.9238c-15.0859 13.8418 -29.5381 32.7139 -29.5381 57.2305c0 19.5293 4.85938 37.6973 14.7695 51.6924c2.54395 3.59375 5.82715 6.50586 9.23047 9.23047c-19.123 162.919 82.5801 231.385 192.615 231.385z
M177.23 211.692c21.752 0 39.3848 -17.6328 39.3848 -39.3848c0 -21.751 -17.6328 -39.3848 -39.3848 -39.3848c-21.751 0 -39.3848 17.6338 -39.3848 39.3848c0 21.752 17.6338 39.3848 39.3848 39.3848zM334.77 211.692c21.751 0 39.3848 -17.6328 39.3848 -39.3848
c0 -21.751 -17.6338 -39.3848 -39.3848 -39.3848c-21.752 0 -39.3848 17.6338 -39.3848 39.3848c0 21.752 17.6328 39.3848 39.3848 39.3848z" />
    <glyph glyph-name="pdf-2" unicode="&#xf121;" 
d="M157.538 448h157.539c21.6611 0 41.5996 -19.4463 75.0771 -52.9229c3.93848 -5.9082 9.59961 -10.0928 13.5381 -16c5.90723 -3.93848 10.0918 -9.60059 16 -13.5391c33.4766 -33.4766 52.9229 -53.415 52.9229 -75.0762v-275.692
c0 -43.3232 -35.4463 -78.7695 -78.7695 -78.7695h-236.308c-43.3223 0 -78.7686 35.4463 -78.7686 78.7695v59.0762h-59.0771c-11.8154 0 -19.6924 9.84668 -19.6924 19.6924v118.154c0 9.8457 7.87695 19.6924 19.6924 19.6924h59.0771v137.846
c0 43.3232 35.4463 78.7695 78.7686 78.7695zM157.538 408.615c-21.6611 0 -39.3838 -17.7227 -39.3838 -39.3848v-137.846h216.615c11.8154 0 19.6924 -9.84668 19.6924 -19.6924v-118.154c0 -9.8457 -7.87695 -19.6924 -19.6924 -19.6924h-216.615v-57.2305
c0 -21.6611 17.7227 -39.3848 39.3838 -39.3848h236.308c21.6621 0 39.3848 17.7236 39.3848 39.3848v256c0 19.6924 -19.6924 19.6924 -39.3848 19.6924h-59.0762c-11.8154 0 -19.6924 7.87695 -19.6924 19.6924v59.0771c0 15.7539 0.246094 33.5996 -13.5391 37.5381h-144
zM55.3848 211.692c-5.41602 -0.246094 -10.2158 -0.861328 -14.1543 -1.84668c0 -1.96875 -1.8457 -2.33789 -1.8457 -4.30762v-110.153s1.8457 -1.72363 1.8457 -3.69238h24c1.96973 0 3.69238 1.72266 3.69238 3.69238v37.5381h3.69238
c13.7852 0 25.9697 3.81543 33.8467 11.6924s9.72266 17.7236 11.6924 29.5391c0 11.8145 -3.81543 21.7842 -11.6924 27.6914c-7.87695 5.9082 -20.0615 9.84668 -33.8467 9.84668c-5.90723 0 -11.8154 0.246094 -17.2305 0zM139.692 211.692
c0 -1.96973 -1.84668 -1.72363 -1.84668 -3.69238v-110.77c0 -1.96875 1.84668 -3.69238 1.84668 -3.69238c3.93848 -1.96875 14.0303 -1.8457 25.8457 -1.8457c21.6621 0 39.3848 5.53809 49.2314 15.3848c7.87695 7.87695 17.8457 21.7842 17.8457 47.3848
c0 19.6924 -6.03027 35.6924 -17.8457 45.5381c-9.84668 7.87695 -24 11.6924 -43.6924 11.6924h-31.3848zM257.846 211.692c-1.96875 0 -3.69141 -1.72363 -3.69141 -3.69238v-112.615c0 -1.96973 1.72266 -3.69238 3.69141 -3.69238h21.5391
c1.96875 0 4.30762 1.72266 4.30762 3.69238v41.2305h33.2305c1.96973 0 4.30762 2.33887 4.30762 4.30762v19.6924c0 1.96973 -2.33789 3.69238 -4.30762 3.69238h-33.2305v19.6924h35.0771c1.96875 0 4.30762 2.33887 4.30762 4.30762v19.6924
c0 1.96875 -2.33887 3.69238 -4.30762 3.69238h-60.9238zM67.0771 185.846h5.53809c7.87695 0 16.123 -1.8457 14.1543 -11.6914c0 -9.84668 -6.1543 -15.3848 -16 -15.3848h-3.69238v27.0762zM165.538 185.846h8c19.6924 0 29.1699 -11.5684 25.2314 -33.2305
c0 -11.8154 -2.09277 -21.7842 -8 -27.6924c-3.93848 -5.90723 -11.6924 -8 -21.5391 -8h-3.69238v68.9229z" />
    <glyph glyph-name="paint-bucket" unicode="&#xf10e;" 
d="M256 448c99.8975 0 181.465 -75.6602 184 -169.6c0.0761719 -0.532227 -0.0498047 -1.06152 0 -1.60059c0.0498047 -0.545898 0.297852 -1.0459 0.320312 -1.59961l0.000976562 -0.160156l-0.000976562 -0.160156c0.00976562 -0.328125 0 -0.628906 0 -0.959961
c0.0166016 -0.220703 0.03125 -0.579102 0.03125 -0.799805c0 -0.22168 -0.0146484 -0.580078 -0.03125 -0.799805c-0.0117188 -0.217773 0.0146484 -0.423828 0 -0.640625v-243.52c0 -28.4238 -23.6582 -51.4971 -56.96 -67.2002s-77.9248 -24.96 -127.36 -24.96
s-94.0586 9.25684 -127.36 24.96s-56.96 38.7764 -56.96 67.2002v244.479c-0.0107422 0.176758 -0.0195312 0.463867 -0.0195312 0.640625s0.00878906 0.462891 0.0195312 0.639648c0 0.220703 -0.00390625 0.420898 0 0.639648
c0.0380859 0.539062 0.181641 1.39941 0.320312 1.9209c0.00878906 0.107422 -0.00976562 0.211914 0 0.319336c0.0498047 0.539062 -0.0761719 1.06836 0 1.60059c2.53516 93.9395 84.1025 169.6 184 169.6zM256 427.52c-76.9346 0 -140.771 -49.6475 -158.72 -115.84
c8.99414 5.8623 19.9287 10.9873 32.3193 15.3604c33.0439 11.6621 77.3525 18.5596 126.4 18.5596s93.3564 -6.89746 126.4 -18.5596c12.3906 -4.37305 23.3252 -9.49805 32.3193 -15.3604c-17.9482 66.1924 -81.7852 115.84 -158.72 115.84zM256 325.12
c-47.0947 0 -89.7188 -6.70605 -119.68 -17.2803c-14.9805 -5.28711 -26.8408 -11.7451 -34.2402 -17.9199c-6.91113 -5.76758 -9.59961 -10.6914 -9.91992 -15.04c0.00585938 -0.131836 0.0107422 -0.347656 0.0107422 -0.479492
c0 -0.132812 -0.00488281 -0.347656 -0.0107422 -0.480469c0.00292969 -0.0878906 0.00488281 -0.231445 0.00488281 -0.320312c0 -0.0878906 -0.00195312 -0.231445 -0.00488281 -0.319336c0.21582 -4.42188 2.8457 -9.45703 9.91992 -15.3604
c7.39941 -6.1748 19.2598 -12.6328 34.2402 -17.9199c29.9609 -10.5742 72.585 -17.2803 119.68 -17.2803c47.0938 0 89.7188 6.70605 119.68 17.2803c14.9805 5.28711 26.8408 11.7451 34.2402 17.9199c6.91113 5.76758 9.59961 10.6914 9.91992 15.04
c-0.00585938 0.132812 -0.0107422 0.347656 -0.0107422 0.480469c0 0.131836 0.00488281 0.34668 0.0107422 0.479492c0 0.201172 0.00976562 0.436523 0 0.639648c-0.21582 4.42188 -2.8457 9.45703 -9.91992 15.3604c-7.39941 6.1748 -19.2598 12.6328 -34.2402 17.9199
c-29.9609 10.5742 -72.5859 17.2803 -119.68 17.2803zM92.1602 240v-211.84c0 -16.6328 15.4453 -34.6475 45.1201 -48.6406c29.6738 -13.9922 71.8994 -23.0391 118.72 -23.0391s89.0459 9.04688 118.72 23.0391c29.6748 13.9932 45.1201 32.0078 45.1201 48.6406v211.84
c-2.04102 -1.54492 -4.11523 -3.03418 -6.39941 -4.48047c-0.579102 -1.38184 -2.0127 -3.24512 -3.2002 -4.15918c-13.3555 -11.8291 -15.7705 -38.5127 -18.2402 -64.6406c-1.23535 -13.0635 -2.57031 -25.4668 -7.67969 -36.4795
c-5.11035 -11.0137 -16.4795 -20.1602 -31.04 -20.1602c-13.5918 0 -24.4111 5.38574 -30.7207 13.4395c-6.30859 8.05469 -8.41211 17.3789 -9.91992 25.6006c-1.50684 8.22168 -2.51367 15.9268 -3.83984 19.8398c-0.663086 1.95605 -1.27539 2.55566 -1.28027 2.55957
c-0.00390625 0.00488281 0.619141 0 -0.319336 0c-7.10059 0 -10.9922 -1.58398 -13.7598 -3.83984c-2.76855 -2.25488 -4.87891 -5.83105 -6.40039 -11.1992c-3.04199 -10.7383 -2.42578 -27.9375 -1.28027 -45.7607c1.14648 -17.8232 2.65039 -35.958 -0.639648 -51.8398
c-1.64551 -7.94043 -4.49512 -15.8799 -10.5605 -21.7598s-14.873 -8.95996 -24.6396 -8.95996s-18.7188 3.19043 -25.2803 8.63965c-6.56055 5.44922 -10.5947 12.6201 -13.4395 20.4805c-5.68945 15.7188 -6.52148 34.3408 -7.04004 52.4795
c-0.518555 18.1396 -0.638672 35.9141 -2.87988 47.6807c-1.12109 5.88281 -3.0498 9.96484 -4.48047 11.8398c-1.43066 1.87402 -1.43457 2.23926 -4.16016 2.23926c-1.96191 0 -2.40723 -0.244141 -3.83984 -1.2793
c-1.43164 -1.03516 -3.67871 -3.18457 -6.71973 -6.08008c-6.08105 -5.79199 -16.8262 -13.1201 -33.5996 -13.1201c-10.9121 0 -20.5576 5.38086 -25.9209 12.7998s-7.38086 15.959 -9.2793 24.6406c-3.79883 17.3623 -6.24316 35.8262 -13.1201 45.7598
c-0.0908203 0.0859375 -0.233398 0.229492 -0.320312 0.319336c-2.77148 1.69922 -5.25195 3.60254 -7.67969 5.44043zM127.68 221.44c2.54395 -10.127 3.60352 -20.082 5.44043 -28.4805c1.68457 -7.70215 3.7627 -13.7549 6.08008 -16.96
c2.31641 -3.20508 3.80762 -4.48047 9.28027 -4.48047c11.8975 0 14.8486 2.91211 19.5195 7.36035c2.33496 2.22461 4.76074 5.19531 8.63965 8c3.87988 2.80469 9.77148 5.12012 16 5.12012c8.28223 0 15.9268 -4.27441 20.4805 -10.2402
c4.55273 -5.96484 6.88086 -12.9229 8.32031 -20.4795c2.87891 -15.1143 2.69336 -33.1797 3.19922 -50.8799c0.505859 -17.7012 1.72168 -34.9199 5.76074 -46.0801c2.01953 -5.58105 4.48047 -9.44922 7.35938 -11.8398
c2.87891 -2.3916 6.31055 -3.84082 12.1602 -3.84082s8.21777 1.24023 10.2402 3.2002c2.02246 1.96094 3.98047 5.38086 5.12012 10.8799c2.27832 10.998 1.1582 28.7031 0 46.7207c-1.1582 18.0166 -2.33398 36.6572 2.23926 52.7998
c2.28711 8.07129 6.26465 15.8555 13.1201 21.4395c6.85547 5.58496 15.9971 8.32031 26.5605 8.32031c5.20508 0 10.4922 -2.08398 14.0801 -5.44043c3.58691 -3.35547 5.43066 -7.39551 6.71973 -11.1992c2.57812 -7.60742 3.1709 -15.2617 4.48047 -22.4004
c1.30859 -7.13867 3.36523 -13.1748 6.0791 -16.6396c2.71484 -3.46582 5.78418 -5.76074 14.7207 -5.76074c7.9668 0 9.55762 2.02148 12.4795 8.32031c2.92285 6.29883 4.56348 17.0957 5.75977 29.7598c1.49707 15.8301 2.18262 34.4922 8 51.2002
c-32.7236 -11.0703 -75.8545 -17.5996 -123.52 -17.5996c-49.0479 0 -93.3564 6.89746 -126.4 18.5596c-0.65918 0.233398 -1.26855 0.40332 -1.91992 0.640625z" />
    <glyph glyph-name="edit-user-male" unicode="&#xf132;" 
d="M203.52 413.12h0.320312c22.3447 0 41.7314 -5.25391 52.4805 -19.2002c16.5518 -3.35547 29.6689 -11.5322 37.7598 -22.7197c8.8291 -12.209 12.6104 -26.8945 13.7598 -41.6006c2.10547 -26.9434 -4.28027 -53.2012 -9.28027 -69.4395
c4.65234 -5.72266 8.39062 -13.1162 7.04004 -24.3203c-1.51367 -12.584 -4.98242 -21.541 -9.91992 -27.8398c-2.64355 -3.37305 -6.06055 -3.77832 -9.2793 -5.44043c-1.77344 -10.6758 -4.91699 -21.4336 -9.28027 -30.3994
c-2.50098 -5.13965 -5.19434 -9.89453 -8 -13.7598c-1.2627 -1.74023 -3.12207 -2.69238 -4.48047 -4.16016c-0.0683594 -12.6357 -0.12793 -23.1582 0.959961 -36.4805c4.47656 -10.7461 17.5938 -19.082 37.1201 -27.2002
c19.9844 -8.30762 44.8887 -16.2568 65.9199 -30.7197c2.73633 -1.64844 4.95801 -5.57812 4.95801 -8.77246c0 -5.65332 -4.58789 -10.2412 -10.2412 -10.2412c-2.04688 0 -4.98438 1.06348 -6.55664 2.37402c-17.6553 12.1406 -40.6973 19.7236 -61.7598 28.4795
c-21.0625 8.75684 -41.54 18.875 -49.2803 39.6807l-0.639648 1.2793v1.28027c-1.55469 17.168 -0.959961 29.3359 -0.959961 44.1602v6.08008l5.43945 2.87988c-0.973633 -0.512695 1.00195 0.930664 2.88086 3.51953s4.01465 6.31836 6.0791 10.5605
c4.12988 8.48438 7.69141 19.3047 8.64062 28.1602l0.959961 8.31934l8.63965 0.640625c0.078125 0.00585938 1.03809 -0.109375 2.87988 2.24023c1.8418 2.34863 4.23047 7.54297 5.44043 17.5996c1.02441 8.50488 -3.32129 11.4678 -2.87988 11.2002l-7.04004 4.16016
l2.55957 8c4.4541 13.3955 11.5205 41.9883 9.60059 66.5596c-0.960938 12.2852 -4.16309 23.3984 -9.91992 31.3604c-5.75781 7.96094 -13.917 13.7002 -28.1602 15.6797l-4.7998 0.639648l-2.56055 4.16016c-3.80176 6.67773 -17.1426 12.7246 -37.7598 12.7998h-0.320312
c-42.5801 -0.863281 -62.96 -15.2266 -72.96 -38.0801c-10.0283 -22.917 -8.36035 -56.6582 1.28027 -93.7598l1.91992 -7.35938l-6.71973 -4.16016c0.441406 0.268555 -3.89844 -2.69336 -2.87988 -11.2002c1.20898 -10.0566 3.59766 -15.251 5.43945 -17.5996
c1.8418 -2.34961 2.80273 -2.23438 2.87988 -2.24023l8.64062 -0.640625l0.959961 -8.31934c0.935547 -8.76855 4.39062 -19.6787 8.63965 -28.1602c2.12402 -4.24121 4.46777 -7.95605 6.40039 -10.5605c1.93164 -2.60352 4.12402 -4.00488 3.19922 -3.51953
l5.44043 -2.87988v-6.08008c0 -14.8291 0.594727 -26.9971 -0.959961 -44.1602l-0.320312 -1.28027l-0.319336 -1.2793c-5.84863 -15.7344 -19.6426 -25.5137 -34.5605 -32.96c-14.918 -7.44727 -31.8984 -12.9199 -48 -19.8408
c-16.1016 -6.91992 -31.0088 -15.1973 -41.9199 -26.2393c-8.67285 -8.77832 -14.0645 -20.3818 -16.96 -34.8799h284.16c0.0400391 0 0.104492 0.000976562 0.144531 0.000976562c5.65332 0 10.2412 -4.58789 10.2412 -10.2412s-4.58789 -10.2412 -10.2412 -10.2412
c-0.0400391 0 -0.104492 0 -0.144531 0.000976562h-296.96h-10.8799l0.639648 10.8799c1.53125 25.4785 11.3613 44.7939 25.2803 58.8799c13.918 14.0869 31.54 23.0508 48.6396 30.4004c17.1006 7.34961 34.0439 13.3525 47.04 19.8398
c12.5918 6.28613 20.3516 12.7715 23.6797 20.7998c1.08887 13.3262 1.02832 23.8477 0.959961 36.4805c-1.33984 1.43555 -3.21484 2.45508 -4.47949 4.16016c-2.85742 3.84961 -5.74414 8.61816 -8.32031 13.7598c-4.48047 8.94531 -7.46484 19.6904 -9.28027 30.3994
c-3.30566 1.66113 -6.8877 1.98145 -9.59961 5.44043c-4.9375 6.29883 -8.40625 15.2559 -9.91992 27.8398c-1.38281 11.5635 2.47266 19.2529 7.36035 24.96c-9.06934 37.3574 -11.8711 73.4893 0.639648 102.08c13.1367 30.0205 43.6816 49.3594 91.5195 50.2402z
M481.28 120.32c7.82422 0 15.7842 -2.99023 21.7598 -8.95996c11.9297 -11.9404 11.9395 -31.2607 0 -43.2002c0 0 -1.68359 -1.68164 -3.2002 -3.2002v-0.320312c-0.801758 -0.803711 -1.93066 -1.60645 -1.91992 -1.59961l-113.28 -113.6
c-1.12988 -1.07227 -3.28027 -2.21875 -4.7998 -2.56055l-39.3594 -10.5596c-0.697266 -0.180664 -1.84668 -0.327148 -2.56641 -0.327148c-5.65234 0 -10.2402 4.58789 -10.2402 10.2412c0 0.719727 0.145508 1.86914 0.326172 2.56543l10.5596 39.3604
c0.341797 1.51953 1.48926 3.66992 2.56055 4.7998l113.6 113.28l5.12012 5.12012c5.96973 5.96973 13.6152 8.95996 21.4404 8.95996zM469.12 91.8398l-111.36 -111.359v-0.320312l14.0801 -14.0801h0.320312l111.359 111.36z" />
    <glyph glyph-name="minus-2-math" unicode="&#xf11c;" 
d="M374.154 388.923c43.3223 0 78.7686 -35.4463 78.7686 -78.7686v-236.309c0 -43.3223 -35.4463 -78.7686 -78.7686 -78.7686h-236.309c-43.3223 0 -78.7686 35.4463 -78.7686 78.7686v236.309c0 43.3223 35.4463 78.7686 78.7686 78.7686h236.309zM374.154 172.308
v39.3848h-236.309v-39.3848h236.309z" />
    <glyph glyph-name="repeat" unicode="&#xf123;" 
d="M318.154 448c2.97266 0 6.03516 -0.885742 8.61523 -2.46191c4.84375 -2.875 8 -8.00488 8 -13.5381v-43.0771h39.3848c75.665 0 137.846 -62.1807 137.846 -137.846v-118.154c0 -75.665 -62.1807 -137.846 -137.846 -137.846
c-0.154297 -0.00195312 -0.40332 -0.00390625 -0.557617 -0.00390625c-21.7422 0 -39.3887 17.6455 -39.3887 39.3887c0 21.7422 17.6465 39.3877 39.3887 39.3877c0.154297 0 0.40332 -0.000976562 0.557617 -0.00390625c33.1143 0 59.0762 25.9619 59.0762 59.0771
v118.154c0 33.1152 -25.9619 59.0771 -59.0762 59.0771h-39.3848v-43.0771c0 -5.55371 -3.17578 -10.6641 -8 -13.5391c-4.78516 -2.89453 -10.998 -3.1748 -16 -0.615234l-83.6924 82.4619c-5.59277 4.96191 -9.23145 8.1084 -9.23145 14.1533
c0 6.06543 4.22949 9.42773 9.23145 14.1543l83.6924 82.4619c2.30371 1.1416 4.88379 1.8457 7.38477 1.8457zM137.846 388.923l0.557617 0.00390625c21.7422 0 39.3887 -17.6455 39.3887 -39.3887c0 -21.7422 -17.6465 -39.3877 -39.3887 -39.3877l-0.557617 0.00390625
c-33.1143 0 -59.0762 -25.9619 -59.0762 -59.0771v-118.154c0 -33.1152 25.9619 -59.0771 59.0762 -59.0771h39.3848v43.0771c0 5.55371 3.17578 10.6641 8 13.5391c4.78516 2.89453 10.998 3.1748 16 0.615234l83.6924 -82.4619
c5.59277 -4.96191 9.25098 -8.12793 9.23145 -14.1533c0 -6.06543 -4.22949 -9.42773 -9.23145 -14.1543l-83.6924 -82.4619c-2.30371 -1.1416 -4.88379 -1.8457 -7.38477 -1.8457c-2.97266 0 -6.03516 0.866211 -8.61523 2.46191c-4.84375 2.875 -8 8.00488 -8 13.5381
v43.0771h-39.3848c-75.665 0 -137.846 62.1807 -137.846 137.846v118.154c0 75.665 62.1807 137.846 137.846 137.846z" />
    <glyph glyph-name="star" unicode="&#xf13d;" 
d="M256.615 425.23c6.76562 -0.264648 14.4854 -5.50293 17.2305 -11.6924l64 -130.461l145.231 -21.5391c8.91992 -1.62695 16.1602 -10.3066 16.1602 -19.374c0 -4.47168 -2.55273 -10.6787 -5.69922 -13.8564l-104 -102.153l24 -144
c0.15918 -0.919922 0.288086 -2.42285 0.288086 -3.35547c0 -10.8711 -8.82324 -19.6943 -19.6943 -19.6943c-2.59668 0 -6.58496 0.952148 -8.90137 2.12598l-129.23 68.3076l-129.23 -68.3076c-2.31641 -1.17383 -6.30469 -2.12598 -8.90137 -2.12598
c-10.8711 0 -19.6943 8.82324 -19.6943 19.6943c0 0.932617 0.128906 2.43555 0.288086 3.35547l24 144l-104 102.153c-3.14648 3.17773 -5.69922 9.38477 -5.69922 13.8564c0 9.06738 7.24023 17.7471 16.1602 19.374l145.231 21.5391l64 130.461
c2.33789 5.06055 8.67969 10.0234 14.1533 11.0771c1.16992 0.301758 3.09961 0.578125 4.30762 0.615234zM256 360l-51.6924 -104c-2.58203 -4.99609 -9.19922 -9.68262 -14.7695 -10.4619l-115.076 -17.2305l83.0762 -81.2305
c3.50391 -3.22949 6.34668 -9.7168 6.34668 -14.4814c0 -0.762695 -0.0859375 -1.99414 -0.192383 -2.75l-19.6924 -115.076l102.77 54.1533c2.38965 1.26855 6.52539 2.29785 9.23047 2.29785s6.84082 -1.0293 9.23047 -2.29785l102.77 -54.1533l-19.6924 115.076
c-0.106445 0.755859 -0.192383 1.9873 -0.192383 2.75c0 4.76465 2.84277 11.252 6.34668 14.4814l83.0762 81.2305l-115.076 17.2305c-5.57031 0.779297 -12.1875 5.46582 -14.7695 10.4619z" />
    <glyph glyph-name="no-filling" unicode="&#xf10b;" 
d="M9.28027 448.32c0.234375 0.0195312 0.615234 0.0351562 0.849609 0.0351562c2.44824 0 5.79492 -1.44922 7.46973 -3.23535l70.0801 -70.0801c26.2793 19.4551 71.0566 31.043 129.601 32l6.71973 6.71973c4.00391 4.00391 10.7158 4.00391 14.7197 0l85.1201 -85.1201
c24.8877 -10.4766 70.9316 -30.7939 111.36 -59.1992c40.4277 -28.4062 76.7998 -65.416 76.7998 -111.04v-109.761c0 -16.8447 -13.875 -30.7197 -30.7197 -30.7197c-16.8457 0 -30.7207 13.875 -30.7207 30.7197c0 29.9727 10.2402 72.5586 10.2402 95.3604
c0 13.8916 -10.3916 28.8311 -20.4795 40l-80.96 -80.6396l149.76 -149.761c1.68262 -1.68262 3.04883 -4.97949 3.04883 -7.35938c0 -5.74609 -4.66309 -10.4092 -10.4092 -10.4092c-2.37988 0 -5.67676 1.36621 -7.35938 3.04883l-491.521 491.521
c-1.81738 1.67871 -3.29297 5.04883 -3.29297 7.52344c0 4.71973 3.76953 9.2334 8.41309 10.0762c0.347656 0.111328 0.920898 0.254883 1.28027 0.320312zM231.36 392l-80.3203 -80.3203l54.7197 -54.7197c14.2822 -1.69824 28.7539 -2.74121 43.2002 -3.2002
c3.59277 5.90918 9.85938 9.91992 17.2803 9.91992c11.3105 0 20.4795 -9.16895 20.4795 -20.4795s-9.16895 -20.4805 -20.4795 -20.4805c-7.72656 0 -14.4326 4.24316 -17.9199 10.5605c-6.69238 0.172852 -13.2969 0.279297 -19.5205 0.639648l116.16 -116.16
l80.3203 80.3203zM195.84 385.6c-41.333 -2.87109 -73.8672 -11.9658 -93.4395 -25.2793l33.9199 -33.9199zM63.3604 341.76l18.8799 -18.8799c1.50488 -12.5742 9.78906 -24.668 19.2002 -32c9.41016 -7.33203 14.7529 -10.5957 29.1191 -16.3203l32 -32
c-25.2207 5.64258 -44.2949 13.5713 -58.5596 22.0801l-56.96 -57.2793c-3.87109 -3.87109 -6.08008 -8.93262 -6.08008 -14.4004s2.20898 -10.5391 6.08008 -14.4004l164.8 -164.8c7.74121 -7.74121 21.3789 -7.73047 29.1201 0l75.2002 75.2002l14.3994 -14.4004
l-75.1992 -75.5195c-7.97754 -7.9873 -18.6348 -11.8398 -29.1201 -11.8398c-10.4863 0 -20.8135 3.85254 -28.7998 11.8398l-164.801 165.12c-7.74121 7.74121 -12.1592 17.8633 -12.1592 28.7998s4.41797 21.3887 12.1592 29.1201l54.4004 54.7197
c-22.5078 19.8457 -25.5996 41.1367 -25.5996 51.5205c0 4.73047 0.731445 9.06738 1.91992 13.4395zM368.64 284.8l79.04 -78.7197c11.9023 -11.8291 33.6006 -33.459 33.6006 -62.0801c0 -28.2754 -10.2402 -70.4863 -10.2402 -95.3604
c0 -5.76367 4.47559 -10.2393 10.2402 -10.2393s10.2393 4.47559 10.2393 10.2393v109.761c0 34.2979 -29.9619 67.2412 -68.1592 94.0801c-17.7363 12.4609 -36.8135 23.084 -54.7207 32.3193z" />
    <glyph glyph-name="details-popup" unicode="&#xf106;" 
d="M80 368h16h320h16v-16v-320v-16h-16h-105l-43.5 -43.5l-11.5 -11l-11.5 11l-43.5 43.5h-105h-16v16v320v16zM112 336v-288h96h6.5l5 -4.5l36.5 -36.5l36.5 36.5l5 4.5h6.5h96v288h-288zM160 272h32v-32h-32v32zM224 272h128v-32h-128v32zM160 208h32v-32h-32v32zM224 208
h128v-32h-128v32zM160 144h32v-32h-32v32zM224 144h128v-32h-128v32z" />
    <glyph glyph-name="multiple-choice" unicode="&#xf11e;" 
d="M39.3848 408.615h118.153v-118.153h-118.153v118.153zM196.923 369.23h275.692v-39.3848h-275.692v39.3848zM39.3848 251.077h19.6924h78.7686h19.6924v-19.6924v-78.7695v-19.6924h-19.6924h-78.7686h-19.6924v19.6924v78.7695v19.6924zM78.7695 211.692v-39.3848
h39.3848v39.3848h-39.3848zM196.923 211.692h275.692v-39.3848h-275.692v39.3848zM39.3848 93.5381h118.153v-118.153h-118.153v118.153zM196.923 54.1543h275.692v-39.3848h-275.692v39.3848z" />
    <glyph glyph-name="automotive" unicode="&#xf116;" 
d="M168 384h97.5c17.7344 0 35.7412 -6.00977 50 -18c0.177734 -0.149414 0.323242 -0.348633 0.5 -0.5l59 -47l12 -2h0.5l1 -0.5c35.5146 -9.86523 59.5 -41.5889 59.5 -77.5v-30.5v-16h-16h-48h-16v16c0 19.043 -12.957 32 -32 32s-32 -12.957 -32 -32v-16h-16h-80h-16v16
c0 19.043 -12.957 32 -32 32s-32 -12.957 -32 -32v-16h-16h-32h-16v16v49.5c0 11.3779 1.92773 23.8555 8 36v0.5l24 46v0.5h0.5c13.9609 25.9268 41.0996 43.5 71.5 43.5zM168 352c-17.4814 0 -34.9971 -10.9941 -43.5 -26.5v-0.5l-24 -46
c-3.52832 -7.05566 -4.5 -13.6777 -4.5 -21.5v-33.5h3c7.21484 27.4424 31.2871 48 61 48s53.7852 -20.5576 61 -48h54c7.21484 27.4424 31.2871 48 61 48s53.7852 -20.5576 61 -48h19v14.5c0 21.4541 -14.3232 40.1533 -36 46.5l-0.5 0.5l-14.5 3l-4 0.5l-3 2.5l-62.5 49.5
v0.5h-0.5c-8.05566 6.90527 -18.6553 10.5 -29.5 10.5h-97.5zM144 128c29.6514 0 54.3467 -20.4824 61.5 -48h23c5.53711 9.55078 15.666 16 27.5 16s21.9629 -6.44922 27.5 -16h23c7.15332 27.5176 31.8486 48 61.5 48c35.1562 0 64 -28.8438 64 -64s-28.8438 -64 -64 -64
c-29.6514 0 -54.3467 20.4824 -61.5 48h-23c-5.53711 -9.55078 -15.666 -16 -27.5 -16s-21.9629 6.44922 -27.5 16h-23c-7.15332 -27.5176 -31.8486 -48 -61.5 -48c-35.1562 0 -64 28.8438 -64 64s28.8438 64 64 64zM144 96c-17.8623 0 -32 -14.1377 -32 -32
s14.1377 -32 32 -32s32 14.1377 32 32s-14.1377 32 -32 32zM368 96c-17.8623 0 -32 -14.1377 -32 -32s14.1377 -32 32 -32s32 14.1377 32 32s-14.1377 32 -32 32z" />
    <glyph glyph-name="plus-math" unicode="&#xf12c;" 
d="M235.52 355.84h40.9609v-143.359h143.359v-40.9609h-143.359v-143.359h-40.9609v143.359h-143.359v40.9609h143.359v143.359z" />
    <glyph glyph-name="print" unicode="&#xf122;" 
d="M137.23 448h236.308c32.4053 0 59.0771 -26.6934 59.0771 -59.0771v-98.4609h20.3076c32.6104 0 59.0771 -26.4668 59.0771 -59.0771v-118.154c0 -32.6104 -26.4668 -59.0762 -59.0771 -59.0762h-20.3076v-59.0771c0 -32.3838 -26.6719 -59.0771 -59.0771 -59.0771
h-236.308c-32.3945 0 -59.0762 26.6816 -59.0762 59.0771v59.0771h-19.0771c-32.6104 0 -59.0771 26.4658 -59.0771 59.0762v118.154c0 32.6104 26.4668 59.0771 59.0771 59.0771h19.0771v98.4609c0 32.3955 26.6816 59.0771 59.0762 59.0771zM137.23 408.615
c-11.085 0 -19.6924 -8.60645 -19.6924 -19.6924v-98.4609h275.692v98.4609c0 11.0977 -8.57715 19.6924 -19.6924 19.6924h-236.308zM423.385 251.077c-16.3057 0 -29.5391 -13.2334 -29.5391 -29.5391c0 -16.3047 13.2334 -29.5381 29.5391 -29.5381
c16.3047 0 29.5381 13.2334 29.5381 29.5381c0 16.3057 -13.2334 29.5391 -29.5381 29.5391zM117.538 152.615v-157.538c0 -11.0859 8.60742 -19.6924 19.6924 -19.6924h236.308c11.1152 0 19.6924 8.59473 19.6924 19.6924v157.538h-275.692zM157.538 113.23h196.924
v-39.3848h-196.924v39.3848zM157.538 54.1543h137.847v-39.3848h-137.847v39.3848z" />
    <glyph glyph-name="metallic-paint" unicode="&#xf13f;" 
d="M159.14 417.06c6.62207 0.598633 13.46 -0.0996094 20.1602 -2.25977l258.54 -80.0801c24.499 -3.77734 43.4404 -25.0283 43.4404 -50.54v-266.239c0 -28.1553 -23.0449 -51.2002 -51.2002 -51.2002h-276.48c-28.1543 0 -51.1992 23.0449 -51.1992 51.2002v33.6191
l-36.1807 12.3809l-0.0195312 0.0195312c-26.7715 8.65137 -41.6387 37.626 -33 64.4199l81.6602 253.4c6.48047 20.0908 24.4131 33.4863 44.2793 35.2793zM160.86 396.72c-11.9316 -1.02539 -22.5664 -9.02441 -26.5 -21.2197l-18.3203 -56.8604
c9.37695 10.21 22.6943 16.7402 37.5596 16.7402h212.92l-193.399 59.9004c-0.0273438 0.0107422 -0.0722656 0.0283203 -0.100586 0.0400391c-4.06641 1.31055 -8.18262 1.74121 -12.1592 1.39941zM153.6 314.9c-17.085 0 -30.7197 -13.6348 -30.7197 -30.7207v-266.239
c0 -17.0859 13.6348 -30.7207 30.7197 -30.7207h276.48c17.085 0 30.7197 13.6348 30.7197 30.7207v266.239c0 13.5381 -8.625 24.7822 -20.6797 28.9199h-0.116211c-0.913086 0 -2.35742 0.233398 -3.22363 0.520508l-2.91992 0.899414
c-1.25391 0.15332 -2.48242 0.380859 -3.78027 0.380859h-276.48zM419.84 294.42c11.3047 0 20.4805 -9.1748 20.4805 -20.4795c0 -11.3057 -9.17578 -20.4805 -20.4805 -20.4805v0c-11.3047 0 -20.4795 9.1748 -20.4795 20.4805v0
c0 11.3047 9.1748 20.4795 20.4795 20.4795v0zM102.4 276.32l-49.7002 -154.221c-5.24414 -16.2666 3.53906 -33.415 19.7998 -38.6592c0.0498047 -0.0166016 0.130859 -0.0429688 0.179688 -0.0605469l29.7207 -10.1602v203.101zM153.6 273.94
c0 0 35.8115 -26.2461 50.6807 -37.7402c14.8682 11.4941 50.7002 37.7402 50.7002 37.7402s-26.25 -35.832 -37.7402 -50.7002c11.4902 -14.8652 37.7402 -50.6807 37.7402 -50.6807s-35.832 26.2266 -50.7002 37.7207
c-14.8691 -11.4912 -50.6807 -37.7207 -50.6807 -37.7207s26.248 35.8184 37.7402 50.6807c-11.4922 14.8652 -37.7402 50.7002 -37.7402 50.7002zM215.04 151.06c0 0 19.5703 -11.5459 30.7197 -18.8398c11.1504 7.29395 30.7207 18.8398 30.7207 18.8398
s-11.2266 -19.8652 -18.3809 -31.1592c7.1543 -11.0117 18.3809 -30.2803 18.3809 -30.2803s-19.5693 10.9277 -30.7207 17.9395c-11.1514 -7.01172 -30.7197 -17.9395 -30.7197 -17.9395s11.2266 19.2686 18.3799 30.2803
c-7.1543 11.2939 -18.3799 31.1592 -18.3799 31.1592z" />
    <glyph glyph-name="connected" unicode="&#xf105;" 
d="M396.5 355.5l23 -23l-42.5 -42.5l7.5 -7c31.1074 -31.1074 31.1074 -81.8926 0 -113l-25.5 -26l12.5 -12.5l-23 -23l-176 176l23 23l12.5 -12.5l14.5 14.5l11.5 11c15.5537 15.5537 35.9922 23.5 56.5 23.5s40.9463 -7.94629 56.5 -23.5l7 -7.5zM290.5 312
c-12.2812 0 -24.5615 -4.56152 -34 -14l-25.5 -26l105 -105l26 25.5c18.876 18.876 18.876 49.124 0 68l-37.5 37.5c-9.43848 9.43848 -21.7188 14 -34 14zM163.5 275.5l176 -176l-23 -23l-12.5 12.5l-26 -25.5c-31.1074 -31.1074 -81.8926 -31.1074 -113 0l-7.5 7l-42 -42
l-23 23l42 42l-7 7.5c-31.1074 31.1074 -31.1074 81.8926 0 113l11 11.5l14.5 14.5l-12.5 12.5zM176 217l-26 -25.5c-18.876 -18.876 -18.876 -49.124 0 -68l37.5 -37.5c18.876 -18.876 49.124 -18.876 68 0l25.5 26z" />
    <glyph glyph-name="key" unicode="&#xf12e;" 
d="M320 400c79.127 0 144 -64.873 144 -144s-64.873 -144 -144 -144c-23.1162 0 -45.1016 6.2627 -64 15.5v-31.5v-16h-16h-32v-32v-16h-16h-32v-32v-16h-16h-80h-16v16v96v6.5l4.5 5l126 125.5c-1.14551 7.34766 -2.5 14.6943 -2.5 23c0 79.127 64.873 144 144 144z
M320 368c-61.6729 0 -112 -50.3271 -112 -112c0 -7.82227 1.40039 -16.4004 3 -26l1.5 -8.5l-6 -5.5l-126.5 -127v-73h48v32v16h16h32v32v16h16h32v32v16h16h17.5h4l4 -2c15.2139 -8.29883 35.1475 -14 54.5 -14c61.6729 0 112 50.3271 112 112s-50.3271 112 -112 112z
M352 320c17.6729 0 32 -14.3271 32 -32s-14.3271 -32 -32 -32s-32 14.3271 -32 32s14.3271 32 32 32z" />
    <glyph glyph-name="pdf" unicode="&#xf120;" 
d="M137.846 448h157.539c20.9326 0 40.748 -19.751 74.4609 -54.1543c4.72656 -4.80469 9.88574 -9.30859 14.7695 -14.1533c4.84473 -4.88379 9.96484 -10.043 14.7695 -14.7695c34.3828 -33.6934 53.5381 -53.5479 53.5381 -74.4609v-275.692
c0 -43.4219 -35.3477 -78.7695 -78.7686 -78.7695h-236.309c-43.4209 0 -78.7686 35.3477 -78.7686 78.7695v354.461c0 43.4219 35.3477 78.7695 78.7686 78.7695zM137.846 408.615c-21.7402 0 -39.3838 -17.6445 -39.3838 -39.3848v-354.461
c0 -21.7402 17.6436 -39.3848 39.3838 -39.3848h236.309c21.7402 0 39.3838 17.6445 39.3838 39.3848v256c0 19.5938 -19.7314 19.6924 -39.3838 19.6924h-59.0771c-10.8506 0 -19.6924 8.8418 -19.6924 19.6924v60.3076c0 17.4668 0.0439453 34.5303 -14.1543 38.1533
h-143.385zM241.23 270.77c5.0332 0 10.4189 -1.62695 14.1543 -4.92383c3.73535 -3.2959 5.42871 -7.88867 6.76953 -12.3076c2.67969 -8.83594 2.71582 -19.1172 1.23047 -30.7686c-1.12305 -8.80859 -5.9668 -20.5947 -8.61523 -30.7695
c0.733398 -1.34668 0.457031 -2.34473 1.23047 -3.69238c10.623 -18.501 24.668 -36.9111 40 -50.4619c1.84375 -1.62988 3.67578 -0.993164 5.53809 -2.46094c7.07031 1.37305 15.793 4.84473 22.1543 5.53809c12.4531 1.3584 22.791 1.90527 32 -0.615234
c4.60449 -1.25977 9.35645 -3.77539 12.9229 -7.38477c3.56738 -3.60938 5.53906 -8.93848 5.53906 -14.1533c0 -6.53125 -3.36914 -14.8281 -9.84668 -18.4619c-6.47656 -3.63281 -13.5264 -3.69238 -22.7695 -3.69238c-16.1309 0 -30.8203 7.35938 -44.9229 17.2305
c-17.3711 -3.84766 -34.2793 -6.27637 -52.9229 -12.9229c-13.3779 -4.76855 -21.4492 -10.6006 -33.2305 -16c-3.80176 -6.34961 -7.19922 -14.9297 -11.0771 -20.3076c-7.29297 -10.1123 -14.8779 -18.4766 -22.7695 -24
c-7.89062 -5.52344 -18.0195 -8.50293 -27.0771 -3.69238c-4.42578 2.35742 -8.52344 6.06348 -10.4609 11.0771s-1.3418 10.6006 0.615234 14.7695c3.91309 8.33691 11.5732 13.9492 20.9229 20.3076c8.58887 5.83984 23.2275 10.9443 35.0771 16.6152
c9.02441 15.626 18.2422 30.4736 25.8457 49.2305c6.19531 15.2822 8.32031 28.1924 12.3076 42.4619c-7.58008 15.3975 -15.0674 31.3408 -16.6152 44.3076c-0.999023 8.37793 -0.657227 16.333 3.07715 23.3848s12.3662 11.6924 20.9229 11.6924zM238.77 251.077
c-0.285156 -0.132812 -0.246094 -0.532227 -0.615234 -1.23145c-0.740234 -1.39746 -1.95996 -5.58496 -1.23145 -11.6914c0.453125 -3.79199 4.70117 -10.5488 6.1543 -15.3848c0.119141 0.819336 0.512695 2.28125 0.615234 3.07617
c1.29785 10.1855 1.2168 18.1426 0 22.1543c-0.608398 2.00586 -1.66895 2.91895 -1.84668 3.07715c-0.176758 0.15625 0.424805 0 -0.615234 0c-1.56738 0 -2.17676 0.132812 -2.46094 0zM247.385 167.385c-3.05078 -9.05273 -3.67285 -16.6904 -7.38477 -25.8467
c-4.21094 -10.3877 -9.97168 -17.832 -14.7695 -27.6924c4.47461 1.72754 7.11035 3.90527 11.6924 5.53906c14.2393 5.07617 27.1973 6.79297 41.2314 10.4609c-11.5703 11.2539 -21.9023 23.9111 -30.7695 37.5391zM342.77 121.846
c-3.46289 -0.0732422 -7.72949 -0.397461 -11.6924 -0.615234c3.40918 -0.823242 7.24023 -4.92285 10.4609 -4.92285c8.08691 0 12.4688 0.975586 12.9238 1.23047c0.454102 0.255859 0 -1.68945 0 1.23145v0.615234c-0.217773 0.219727 -1.28516 1.1875 -3.69238 1.8457
c-1.87891 0.514648 -4.53809 0.689453 -8 0.615234zM177.23 69.5381c-1.35156 -0.851562 -4.31348 -1.62793 -5.53809 -2.46094c-7.6748 -5.21875 -12.4219 -10.3643 -13.5381 -12.3076c0.0429688 -0.0341797 -0.454102 -0.046875 0.615234 -0.615234
c0.90625 -0.482422 1.97559 -0.894531 6.76855 2.46094c3.14355 2.2002 7.57715 8.0918 11.6924 12.9229z" />
    <glyph glyph-name="paint-bucket-with-qr" unicode="&#xf111;" 
d="M256 448c99.3574 0 181.311 -70.376 184 -159.36c0.212891 -1.49707 0.320312 -2.92969 0.320312 -4.47949l0.00488281 -0.320312l-0.00488281 -0.320312c0.0166016 -0.219727 0.03125 -0.578125 0.03125 -0.799805c0 -0.220703 -0.0146484 -0.579102 -0.03125 -0.799805
v-253.76c0 -28.501 -23.6426 -51.5205 -56.96 -67.2002c-33.3184 -15.6797 -77.9863 -24.96 -127.36 -24.96s-94.042 9.28027 -127.36 24.96c-33.3174 15.6797 -56.96 38.6992 -56.96 67.2002v253.76c-0.00585938 0.132812 -0.0107422 0.347656 -0.0107422 0.480469
c0 0.131836 0.00488281 0.347656 0.0107422 0.479492c-0.00292969 0.0888672 -0.00488281 0.231445 -0.00488281 0.320312c0 0.0878906 0.00195312 0.231445 0.00488281 0.319336c-0.00292969 0.0888672 -0.00488281 0.232422 -0.00488281 0.320312
c0 0.0888672 0.00195312 0.231445 0.00488281 0.320312c0 91.0996 83.2939 163.84 184.32 163.84zM256 427.52c-75.876 0 -138.688 -44.707 -157.76 -104.96c8.8125 5.60938 19.3936 10.4971 31.3594 14.7207c33.0439 11.6621 77.3525 18.5596 126.4 18.5596
s93.3564 -6.89746 126.4 -18.5596c11.9658 -4.22363 22.5469 -9.11133 31.3594 -14.7207c-19.0713 60.2529 -81.8838 104.96 -157.76 104.96zM256 335.36c-47.0947 0 -89.7188 -6.70605 -119.68 -17.2803c-14.9805 -5.28711 -26.8408 -11.7451 -34.2402 -17.9199
c-7.40039 -6.1748 -9.91992 -11.4375 -9.91992 -16c0.00292969 -0.0888672 0.00488281 -0.231445 0.00488281 -0.320312c0 -0.0878906 -0.00195312 -0.231445 -0.00488281 -0.320312c0.00976562 -0.201172 -0.0205078 -0.435547 0 -0.639648
c0.418945 -4.27637 3.16797 -9.08594 9.91992 -14.7197c7.39941 -6.1748 19.2598 -12.6328 34.2402 -17.9199c29.9609 -10.5742 72.585 -17.2803 119.68 -17.2803c47.0938 0 89.7188 6.70605 119.68 17.2803c14.9805 5.28711 26.8408 11.7451 34.2402 17.9199
c6.59082 5.5 9.4043 10.1973 9.91992 14.3994l-0.00488281 0.320312l0.00488281 0.320312c-0.00585938 0.131836 -0.0107422 0.347656 -0.0107422 0.479492c0 0.132812 0.00488281 0.347656 0.0107422 0.480469c0 4.5625 -2.51953 9.8252 -9.91992 16
c-7.39941 6.1748 -19.2598 12.6328 -34.2402 17.9199c-29.9609 10.5742 -72.5859 17.2803 -119.68 17.2803zM92.1602 250.24v-222.08c0 -16.7402 15.4336 -34.6699 45.1201 -48.6406c29.6865 -13.9697 71.9502 -23.0391 118.72 -23.0391s89.0332 9.06934 118.72 23.0391
c29.6865 13.9707 45.1201 31.9004 45.1201 48.6406v222.08c-9.87305 -7.47266 -22.4834 -13.9219 -37.4395 -19.2002c-33.0439 -11.6621 -77.3525 -18.5596 -126.4 -18.5596s-93.3564 6.89746 -126.4 18.5596c-14.9561 5.27832 -27.5664 11.7275 -37.4395 19.2002z
M184.32 161.28h51.1992v-51.2002h-51.1992v51.2002zM276.48 161.28h51.1992v-51.2002h-51.1992v51.2002zM245.76 151.04h20.4805v-20.4805h-20.4805v20.4805zM204.8 140.8v-10.2402h10.2402v10.2402h-10.2402zM296.96 140.8v-10.2402h10.2402v10.2402h-10.2402z
M245.76 120.32h20.4805v-20.4805v-20.4795h-20.4805h-51.2002v20.4795h51.2002v20.4805zM266.24 79.3604h20.4795v-20.4805h-10.2393v-40.96h-20.4805v40.96h10.2402v20.4805zM286.72 79.3604v20.4795h20.4805v-20.4795h-20.4805zM307.2 79.3604h20.4795v-30.7207v-10.2393
v-10.2402h-30.7197v20.4795h10.2402v30.7207zM184.32 69.1201h51.1992v-51.2002h-51.1992v51.2002zM204.8 48.6396v-10.2393h10.2402v10.2393h-10.2402z" />
    <glyph glyph-name="view-details" unicode="&#xf115;" 
d="M59.0771 448h393.846c21.5488 0 39.3848 -17.8359 39.3848 -39.3848v-433.23c0 -21.5488 -17.8359 -39.3848 -39.3848 -39.3848h-393.846c-21.5488 0 -39.3848 17.8359 -39.3848 39.3848v433.23c0 21.5488 17.8359 39.3848 39.3848 39.3848zM59.0771 408.615v-433.23
h393.846v433.23h-393.846zM118.154 310.154h39.3838v-39.3848h-39.3838v39.3848zM196.923 310.154h196.923v-39.3848h-196.923v39.3848zM118.154 211.692h39.3838v-39.3848h-39.3838v39.3848zM196.923 211.692h196.923v-39.3848h-196.923v39.3848zM118.154 113.23h39.3838
v-39.3848h-39.3838v39.3848zM196.923 113.23h196.923v-39.3848h-196.923v39.3848z" />
    <glyph glyph-name="solid-paint" unicode="&#xf13e;" 
d="M159.14 417.06c6.62207 0.598633 13.46 -0.0996094 20.1602 -2.25977l258.66 -80.1201c24.4404 -3.8291 43.3203 -25.0498 43.3203 -50.5195v-266.24c0 -28.1553 -23.0449 -51.2002 -51.2002 -51.2002h-276.48c-28.1543 0 -51.1992 23.0449 -51.1992 51.2002v33.6396
l-36.3408 12.4209l0.160156 -0.0400391c-26.7881 8.63965 -41.6611 37.6172 -33.0195 64.4199l81.6602 253.42c6.48047 20.0908 24.4131 33.4863 44.2793 35.2793zM160.86 396.7c-11.9316 -1.02051 -22.5664 -9.00488 -26.5 -21.2002l-18.3408 -56.8799
c9.37793 10.2148 22.71 16.7402 37.5801 16.7402h212.94l-193.42 59.9199c-0.0273438 0.00488281 -0.0722656 0.0136719 -0.100586 0.0195312c-4.06641 1.31152 -8.18262 1.74023 -12.1592 1.40039zM153.6 314.88c-17.085 0 -30.7197 -13.6348 -30.7197 -30.7197v-222.7
c0.200195 -0.731445 0.362305 -1.94141 0.362305 -2.7002s-0.162109 -1.96777 -0.362305 -2.7002v-38.1396c0 -17.085 13.6348 -30.7197 30.7197 -30.7197h276.48c17.085 0 30.7197 13.6348 30.7197 30.7197v266.24c0 13.6113 -8.72168 24.8984 -20.8799 28.9795h-0.102539
c-0.857422 0 -2.21875 0.206055 -3.03711 0.459961l-2.91992 0.900391c-1.25391 0.15332 -2.48242 0.379883 -3.78027 0.379883h-276.48zM419.84 294.4c11.3047 0 20.4805 -9.17578 20.4805 -20.4805s-9.17578 -20.4795 -20.4805 -20.4795s-20.4795 9.1748 -20.4795 20.4795
s9.1748 20.4805 20.4795 20.4805zM102.4 276.32l-49.7002 -154.24c-5.24414 -16.2666 3.53906 -33.416 19.7998 -38.6602c0.0498047 -0.015625 0.130859 -0.0429688 0.179688 -0.0595703l29.7207 -10.1602v203.12z" />
    <glyph glyph-name="paint-bucket-2" unicode="&#xf114;" 
d="M256 448c91.542 0 167.515 -70.1846 176.615 -159.385c11.084 -9.17578 20.3076 -22.0439 20.3076 -37.5381v-236.308c0 -16.1377 -9.83105 -29.542 -21.5381 -38.7695s-26.2314 -15.7178 -43.6924 -21.5381c-34.9229 -11.6416 -80.9736 -18.4619 -131.692 -18.4619
s-96.7695 6.82031 -131.692 18.4619c-17.4609 5.82031 -31.9854 12.3105 -43.6924 21.5381s-21.5381 22.6318 -21.5381 38.7695v236.308c0 15.4941 9.22363 28.3623 20.3076 37.5381c9.10059 89.2002 85.0732 159.385 176.615 159.385zM256 408.615
c-62.2461 0 -114.464 -40.7617 -131.692 -97.2305c34.9229 11.6406 80.9775 18.4609 131.692 18.4609s96.7695 -6.82031 131.692 -18.4609c-17.2285 56.4688 -69.4463 97.2305 -131.692 97.2305zM256 290.462c-47.167 0 -90.1631 -6.25977 -119.385 -16
c-14.6104 -4.87109 -25.7705 -11.0908 -32 -16c-6.22852 -4.90918 -6.15332 -7.20996 -6.15332 -7.38477s-0.0751953 -2.47559 6.15332 -7.38477c3.73438 -2.94336 9.65527 -6.53418 16.6152 -9.84668c12.8535 20.9355 68.1553 36.9238 134.77 36.9238
s121.916 -15.9883 134.77 -36.9238c6.96094 3.3125 12.8809 6.90332 16.6152 9.84668c6.22852 4.90918 6.15332 7.20898 6.15332 7.38477c0 0.174805 0.0751953 2.47559 -6.15332 7.38477c-6.22949 4.90918 -17.3896 11.1289 -32 16
c-29.2217 9.74023 -72.2178 16 -119.385 16zM98.4619 201.23v-186.461c0 -0.177734 -0.0751953 -2.47656 6.15332 -7.38477c6.22852 -4.90918 17.3896 -11.1299 32 -16c29.2207 -9.74023 72.2129 -16 119.385 -16s90.1641 6.25977 119.385 16
c14.6104 4.87012 25.7715 11.0908 32 16c6.22852 4.9082 6.15332 7.20703 6.15332 7.38477v186.461c-7.79785 -3.91016 -16.3184 -7.28516 -25.8457 -10.4609c-10.0879 -3.36328 -21.4404 -6.10547 -33.2305 -8.61523c0 0 -19.6924 -10.1816 -19.6924 -29.5391
c0 -57.6592 19.6924 -69.1592 19.6924 -98.4609c0 -21.7607 -17.625 -39.3848 -39.3848 -39.3848s-39.3848 17.624 -39.3848 39.3848c0 29.833 19.6924 43.4404 19.6924 98.4609c0 0 1.89551 20.3076 -11.6924 20.3076
c-9.13574 -0.46582 -18.1865 -0.615234 -27.6924 -0.615234c-4.86133 0 -9.38379 0.492188 -14.1543 0.615234c0.0283203 -0.136719 0 -0.479492 0 -0.615234c0 0 -15.3838 -0.176758 -15.3838 -9.8457c0 -7.97559 9.8457 -14.8877 9.8457 -29.5391
c0 -10.8701 -8.82227 -19.6924 -19.6924 -19.6924s-19.6924 8.82227 -19.6924 19.6924c0 14.9268 9.84668 22.9414 9.84668 29.5391c0 0 1.81152 13.5381 -12.3076 13.5381c-26.1934 3.12598 -50.085 8.08008 -70.1543 14.7695
c-9.52734 3.17578 -18.0479 6.55078 -25.8457 10.4609z" />
    <glyph glyph-name="search" unicode="&#xf124;" 
d="M196.923 444.308c106.732 0 193.231 -86.498 193.231 -193.23c0 -45.2725 -15.7764 -87.0635 -41.8467 -120l17.2305 -17.2314c13.6299 7.34766 30.958 5.35059 42.4619 -6.15332l91.0771 -90.4619c14.04 -14.04 14.04 -37.0166 0 -51.0762l-17.2314 -17.2314
c-14.0596 -14.0605 -37.0361 -14.0605 -51.0762 0l-90.4619 91.0771c-11.46 11.46 -13.9795 28.873 -6.76953 42.4619l-17.2305 17.2305c-32.875 -25.8857 -74.29 -41.8467 -119.385 -41.8467c-106.732 0 -193.23 86.499 -193.23 193.231s86.498 193.23 193.23 193.23z
M196.923 408.615c-87 0 -157.538 -70.5381 -157.538 -157.538c0 -87.001 70.5381 -157.539 157.538 -157.539c87.001 0 157.539 70.5381 157.539 157.539c0 87 -70.5381 157.538 -157.539 157.538zM97.2305 300.923c-0.0986328 -2.04785 0 -4.10547 0 -6.15332
c0 -77.0957 62.002 -139.077 139.077 -139.077c4.82422 0 10.0625 0.103516 14.7695 0.615234c-17.5459 -12.2686 -39.1338 -19.6924 -62.1543 -19.6924c-59.5889 0 -107.692 48.084 -107.692 107.692c0 20.7559 5.81934 40.1523 16 56.6152z" />
    <glyph glyph-name="resume-button" unicode="&#xf136;" 
d="M184.32 368.64l15.3594 -9.2793l266.24 -158.721l14.7197 -8.63965l-14.7197 -8.63965l-266.24 -158.721l-15.3594 -9.2793v17.9199v317.439v17.9199zM61.4404 366.08h10.2393h61.4404h10.2402v-10.2402v-327.68v-10.2402h-10.2402h-61.4404h-10.2393v10.2402v327.68
v10.2402zM81.9199 345.6v-307.199h40.96v307.199h-40.96zM204.8 332.8v-281.6l236.48 140.8z" />
    <glyph glyph-name="disconnected" unicode="&#xf107;" 
d="M436.5 395.5l23 -23l-42.5 -42.5l7.5 -7c31.1074 -31.1074 31.1074 -81.8926 0 -113l-25.5 -26l12.5 -12.5l-23 -23l-44.5 44.5l-44.5 -44.5l-23 23l44.5 44.5l-41 41l-44.5 -44.5l-23 23l44.5 44.5l-44.5 44.5l23 23l12.5 -12.5l14.5 14.5l11.5 11
c15.5537 15.5537 35.9922 23.5 56.5 23.5s40.9463 -7.94629 56.5 -23.5l7 -7.5zM330.5 352c-12.2812 0 -24.5615 -4.56152 -34 -14l-25.5 -26l105 -105l22 22l4 3.5c18.876 18.876 18.876 49.124 0 68l-37.5 37.5c-9.43848 9.43848 -21.7188 14 -34 14zM123.5 235.5
l176 -176l-23 -23l-12.5 12.5l-26 -25.5c-31.1074 -31.1074 -81.8926 -31.1074 -113 0l-7.5 7l-42 -42l-23 23l42 42l-7 7.5c-31.1074 31.1074 -31.1074 81.8926 0 113l25.5 26l-12.5 12.5zM136 177l-26 -25.5c-18.876 -18.876 -18.876 -49.124 0 -68l34 -33.5l3.5 -4
c18.876 -18.876 49.124 -18.876 68 0l25.5 26z" />
    <glyph glyph-name="settings" unicode="&#xf125;" 
d="M225.846 428.923h59.0771l12.3076 -70.1533c16.8369 -4.19434 32.9697 -10.9688 47.3848 -19.6924l57.8467 41.8457l41.8457 -41.8457l-41.2305 -58.4619c8.625 -14.375 15.5176 -30.0508 19.6924 -46.7695l70.1533 -11.6914v-59.0771l-70.1533 -12.9229
c-4.13574 -16.7188 -11.0674 -32.3945 -19.6924 -46.7695l41.8457 -57.8467l-41.8457 -41.8457l-58.4619 41.2305c-14.375 -8.74316 -30.0107 -15.458 -46.7695 -19.6924l-12.9229 -70.1533h-59.0771l-11.6914 70.1533c-16.8369 4.15527 -32.8916 10.373 -47.3848 19.0771
l-57.8467 -40.6152l-41.8457 41.8457l41.2305 57.8467c-8.80273 14.5332 -15.498 30.4883 -19.6924 47.3848l-69.5381 12.3076v59.0771l69.5381 11.6914c4.23438 16.9355 10.9297 32.8721 19.6924 47.3848l-40.6152 57.8467l41.8457 41.8457l57.8467 -41.2305
c14.4541 8.68457 30.5674 14.9414 47.3848 19.0771zM256 320.615c-70.9707 0 -128.615 -57.6641 -128.615 -128.615s57.6445 -128.615 128.615 -128.615s128.615 57.6445 128.615 128.615s-57.6445 128.615 -128.615 128.615zM256 289.23
c53.5234 0 97.2305 -43.707 97.2305 -97.2305s-43.707 -97.2305 -97.2305 -97.2305s-97.2305 43.707 -97.2305 97.2305s43.707 97.2305 97.2305 97.2305zM255.385 232.615c-22.5674 0 -40.6152 -18.0283 -40.6152 -40.6152c0 -22.5674 18.0479 -40.6152 40.6152 -40.6152
s41.2305 18.0479 41.2305 40.6152c0 22.5869 -18.6631 40.6152 -41.2305 40.6152z" />
    <glyph glyph-name="dossier" unicode="&#xf13a;" 
d="M106.667 405.333h298.666c23.4668 0 42.667 -19.1992 42.667 -42.666v-341.334c0 -23.4668 -19.2002 -42.666 -42.667 -42.666h-298.666v85.333h42.666v21.333h-42.666h-42.667v42.667h42.667v42.667h42.666v21.333h-42.666h-42.667v42.667h42.667v42.666h42.666v21.334
h-42.666h-42.667v42.666h42.667v64zM192 320v-128h192v128h-192zM213.333 277.333h149.334v-42.666h-149.334v42.666z" />
    <glyph glyph-name="edit-property" unicode="&#xf12a;" 
d="M28.7998 448h392.96c15.7012 0 28.7998 -13.0986 28.7998 -28.7998v-51.2002c0.0253906 -0.264648 0.0458984 -0.694336 0.0458984 -0.959961s-0.0205078 -0.695312 -0.0458984 -0.959961v-10.2402v-133.12l0.000976562 -0.144531
c0 -5.65332 -4.58789 -10.2412 -10.2402 -10.2412c-5.65332 0 -10.2412 4.58789 -10.2412 10.2412l0.000976562 0.144531v133.12h-409.6v-307.2h225.279c0.0400391 0.000976562 0.105469 0.000976562 0.145508 0.000976562c5.65234 0 10.2402 -4.58789 10.2402 -10.2402
c0 -5.65332 -4.58789 -10.2412 -10.2402 -10.2412c-0.0400391 0 -0.105469 0 -0.145508 0.000976562h-235.52c-5.65234 0 -10.2393 4.58789 -10.2402 10.2402v317.439v10.2402c-0.0244141 0.264648 -0.0449219 0.694336 -0.0449219 0.959961
s0.0205078 0.695312 0.0449219 0.959961v51.2002c0 15.7012 13.0986 28.7998 28.7998 28.7998zM28.7998 427.52c-4.77832 0 -8.31934 -3.54102 -8.31934 -8.31934v-42.8799h409.6v42.8799c0 4.77832 -3.54102 8.31934 -8.32031 8.31934h-392.96zM71.6797 294.4h40.96
v-20.4805h-40.96v20.4805zM143.36 294.4h235.52v-20.4805h-235.52v20.4805zM71.6797 243.2h40.96v-20.4805h-40.96v20.4805zM143.36 243.2h235.52v-20.4805h-235.52v20.4805zM470.08 192.96c10.752 0 21.5684 -3.96777 29.7598 -12.1602
c16.3838 -16.3838 16.3838 -43.1357 0 -59.5195l-1.28027 -0.959961l0.00195312 -0.160156l-0.00195312 -0.160156c-0.539062 -1.25195 -1.8291 -2.97168 -2.87988 -3.83984l-161.92 -160.641c-1.02246 -1.12695 -3.0293 -2.41797 -4.47949 -2.87988l-61.4404 -16.3193
c-0.72168 -0.194336 -1.91406 -0.352539 -2.66113 -0.352539c-5.65332 0 -10.2412 4.58887 -10.2412 10.2412c0 0.820312 0.189453 2.125 0.422852 2.91113l17.2793 61.4395c0.461914 1.45117 1.75293 3.45801 2.87988 4.48047l158.08 158.08l-0.319336 0.320312
l7.04004 7.35938c8.19141 8.19238 19.0078 12.1602 29.7598 12.1602zM71.6797 192h40.96v-20.4805h-40.96v20.4805zM143.36 192h235.52v-20.4805h-235.52v20.4805zM448 158.72l-156.16 -156.479l-0.320312 -1.28027l30.0801 -29.1201l157.12 156.16zM71.6797 140.8h40.96
v-20.4795h-40.96v20.4795zM143.36 140.8h194.56v-20.4795h-194.56v20.4795z" />
    <glyph glyph-name="yacht" unicode="&#xf101;" 
d="M43.0771 347.692h32c5.90723 0 5.78418 -0.369141 11.6924 -4.30762c3.90137 -2.60156 33.5117 -19.5469 58.4609 -33.8467c29.6055 5.94434 85.6816 13.7109 108.924 16.6162c37.415 5.90723 126.153 -25.8467 126.153 -25.8467s-283.569 -70.7695 -285.538 -70.7695
c1.16016 10.4434 9.24414 29.6719 17.2305 46.7695c-12.4229 11.1191 -67.2354 59.8516 -70.7695 63.3848c-3.93848 5.90723 -4.06152 8 1.84668 8zM498.462 306.462c7.87695 1.96875 15.7539 -2.09277 9.8457 -17.8467c-31.0156 -54.6465 -77.877 -139.6 -122.462 -178.461
c15.0381 1.5498 33.4902 5.80762 47.3848 16.6152c17.7236 -13.7852 43.3232 -17.2314 59.0771 -17.2314c7.87695 0 13.7852 1.72363 19.6924 3.69238v-35.6924c-5.90723 -1.96875 -11.8154 -3.69238 -19.6924 -3.69238c-15.7539 0 -41.3535 4.06152 -59.0771 17.8467
c-17.7227 -13.7852 -43.3232 -17.8467 -59.0762 -17.8467c-15.0303 0 -39.0518 3.7002 -56.6162 16h-4.92285c-17.5635 -12.2998 -41.585 -16 -56.6152 -16s-39.0518 3.7002 -56.6152 16h-4.92285c-17.5645 -12.2998 -41.5859 -16 -56.6162 -16
c-15.0293 0 -39.0518 3.7002 -56.6152 16h-4.92285c-11.3428 -8.91211 -25.3877 -16 -56.6152 -16c-7.87695 0 -13.7852 1.84668 -19.6924 1.84668v35.6924c5.90723 -1.96973 11.8154 -1.84668 19.6924 -1.84668h0.615234c3.0957 28.918 37.6934 83.3994 99.6924 100.308
c57.1074 17.7236 378.462 96.6162 378.462 96.6162zM354.462 231.385c-11.8154 0 -19.6924 -7.87695 -19.6924 -19.6924s7.87695 -19.6924 19.6924 -19.6924s19.6924 7.87695 19.6924 19.6924s-7.87695 19.6924 -19.6924 19.6924zM275.692 211.692
c-11.8154 0 -19.6924 -7.87695 -19.6924 -19.6924s7.87695 -19.6924 19.6924 -19.6924s19.6924 7.87695 19.6924 19.6924s-7.87695 19.6924 -19.6924 19.6924zM196.923 192c-11.8154 0 -19.6924 -7.87695 -19.6924 -19.6924s7.87695 -19.6924 19.6924 -19.6924
s19.6924 7.87695 19.6924 19.6924s-7.87695 19.6924 -19.6924 19.6924zM78.7695 67.6924c17.7227 -13.7852 43.3232 -17.2305 59.0762 -17.2305c15.7539 0 41.3545 3.44531 59.0771 17.2305c17.7236 -13.7852 43.3232 -17.2305 59.0771 -17.2305
s41.3535 3.44531 59.0771 17.2305c17.7227 -13.7852 43.3232 -17.2305 59.0771 -17.2305c15.7529 0 41.3535 3.44531 59.0762 17.2305c17.7236 -13.7852 43.3232 -17.2305 59.0771 -17.2305c7.87695 0 13.7852 1.72266 19.6924 3.69238v-35.6924
c-5.90723 -1.96973 -11.8154 -3.69238 -19.6924 -3.69238c-15.7539 0 -41.3535 4.06152 -59.0771 17.8457c-17.7227 -13.7842 -43.3232 -17.8457 -59.0762 -17.8457c-15.7539 0 -41.3545 4.06152 -59.0771 17.8457c-17.7236 -13.7842 -43.3232 -17.8457 -59.0771 -17.8457
s-41.3535 4.06152 -59.0771 17.8457c-17.7227 -13.7842 -43.3232 -17.8457 -59.0771 -17.8457c-15.7529 0 -41.3535 4.06152 -59.0762 17.8457c-11.8154 -9.8457 -25.6006 -17.8457 -59.0771 -17.8457c-7.87695 0 -13.7852 1.8457 -19.6924 1.8457v35.6924
c5.90723 -1.96875 11.8154 -1.8457 19.6924 -1.8457c15.7539 0 41.3535 3.44531 59.0771 17.2305z" />
    <glyph glyph-name="paint-bucket-with-qr-filled" unicode="&#xf112;" 
d="M256 448c99.4756 0 181.498 -70.5459 184 -159.68c0.182617 -1.41309 0.320312 -2.70508 0.320312 -4.16016c0.0166016 -0.220703 0.03125 -0.579102 0.03125 -0.799805c0 -0.22168 -0.0146484 -0.580078 -0.03125 -0.800781
c-0.0117188 -0.228516 -0.304688 -0.412109 -0.320312 -0.639648l0.00488281 -0.320312l-0.00488281 -0.319336c-3.9834 -44.6396 -96.5742 -68.7998 -184 -68.7998c-87.416 0 -180.016 24.1602 -184 68.7998c-0.179688 0.694336 -0.325195 1.8418 -0.325195 2.55957
c0 0.0878906 0.00195312 0.231445 0.00488281 0.320312c0 1.45508 0.137695 2.74707 0.320312 4.16016c2.50195 89.1338 84.5244 159.68 184 159.68zM256 427.52c-75.876 0 -138.688 -44.707 -157.76 -104.96c34.4814 21.7852 97.4092 33.2803 157.76 33.2803
c60.3574 0 123.28 -11.4951 157.76 -33.2803c-19.0713 60.2529 -81.8838 104.96 -157.76 104.96zM71.6797 240c39.373 -36.792 126.854 -48 184.32 -48s144.947 11.208 184.32 48v-211.84c0 -51.6816 -80.958 -92.1602 -184.32 -92.1602
c-103.353 0 -184.32 40.4785 -184.32 92.1602v211.84zM184.32 151.04v-51.2002h51.1992v51.2002h-51.1992zM276.48 151.04v-51.2002h51.1992v51.2002h-51.1992zM245.76 140.8v-20.4795h20.4805v20.4795h-20.4805zM204.8 130.56h10.2402v-10.2393h-10.2402v10.2393z
M296.96 130.56h10.2402v-10.2393h-10.2402v10.2393zM245.76 110.08v-20.4805h-51.2002v-20.4795h51.2002h20.4805v-20.4805h-10.2402v-40.96h20.4805v40.96h10.2393v20.4805h20.4805v-30.7197h-10.2402v-20.4805h30.7197v10.2402v10.2402v30.7197h-20.4795v20.4795h-20.4805
v-20.4795h-20.4795v20.4795v20.4805h-20.4805zM184.32 58.8799v-51.2002h51.1992v51.2002h-51.1992zM204.8 38.4004h10.2402v-10.2402h-10.2402v10.2402z" />
    <glyph glyph-name="airport" unicode="&#xf137;" 
d="M473.846 447.385c11.4365 0.602539 22.0361 -1.72852 28.9238 -8.61523c27.5488 -27.5498 -16.916 -104.955 -36.9238 -124.924l-60.9229 -60.9229l4.92285 -71.3848c10.8174 4.24121 24.2227 4.70117 33.2314 -4.30762
c13.3311 -13.292 5.99609 -36.5244 -3.69238 -46.1533l-24.6152 -24.6152l8.61523 -131.077l-37.5391 -36.3076l-79.3838 215.385l-109.539 -109.539v-65.8457l-43.0771 -42.4619l-30.1533 123.077l-123.077 30.1533l42.4619 43.0771h65.2305l109.538 109.539
l-214.769 79.3838l36.3076 37.5391l131.077 -8.61523l24.6152 24.6152c9.62891 9.68848 32.8613 17.0234 46.1533 3.69238c9.00879 -9.00879 8.54883 -22.4141 4.30762 -33.2314l71.3848 -4.92285l60.9229 60.9229c14.9619 14.9912 61.6934 43.7295 96 45.5391z" />
    <glyph glyph-name="info-squared" unicode="&#xf10a;" 
d="M39.04 417.28c0.132812 0.00585938 0.347656 0.0107422 0.479492 0.0107422c0.132812 0 0.347656 -0.00488281 0.480469 -0.0107422c0.132812 0.00585938 0.347656 0.0107422 0.480469 0.0107422c0.131836 0 0.34668 -0.00488281 0.479492 -0.0107422h430.08
c5.65137 -0.000976562 10.2393 -4.58789 10.2402 -10.2402v-430.08c-0.000976562 -5.65137 -4.58887 -10.2393 -10.2402 -10.2402h-430.08c-5.65234 0.000976562 -10.2393 4.58887 -10.2402 10.2402v430.08
c-0.000976562 0.0498047 -0.000976562 0.130859 -0.000976562 0.180664c0 4.67578 3.72754 9.18262 8.32129 10.0596zM51.2002 396.8v-409.6h409.6v409.6h-409.6zM243.52 315.84h24.9609c2.20117 0 3.51953 -1.31836 3.51953 -3.51953v-26.8799
c0 -2.20215 -1.31836 -3.84082 -3.51953 -3.84082h-24.9609c-2.21094 0 -3.51953 1.63867 -3.51953 3.84082v26.8799c0 2.20117 1.31836 3.51953 3.51953 3.51953zM242.88 241.92c0.446289 0.172852 0.732422 0 1.28027 0h23.6797
c2.21191 0 3.52051 -1.31836 3.52051 -3.51953v-168.641c0 -2.20117 -1.31836 -3.51953 -3.52051 -3.51953h-23.6797c-2.20215 0 -3.52051 1.31836 -3.52051 3.51953v168.641c0 1.65039 0.901367 3.00195 2.24023 3.51953z" />
    <glyph glyph-name="circled-left" unicode="&#xf119;" 
d="M492.308 192c0 -129.969 -106.339 -236.308 -236.308 -236.308s-236.308 106.339 -236.308 236.308s106.339 236.308 236.308 236.308s236.308 -106.339 236.308 -236.308zM232.369 81.7227c5.9082 -3.93848 11.8154 -3.93848 15.7539 0
c5.9082 1.96973 7.87695 5.9082 7.87695 11.8154v51.2002s120.123 7.87695 126.031 11.8154c5.90723 5.9082 11.8145 21.6621 11.8145 35.4463s-3.93848 31.5078 -11.8145 37.415c-5.9082 3.93848 -126.031 9.84668 -126.031 9.84668v51.2002
c0 5.90723 -3.93848 9.8457 -5.90723 13.7842c-5.9082 3.93848 -11.8154 3.93848 -15.7539 0c-57.1084 -39.3848 -110.277 -100.431 -112.246 -102.4c-1.96973 -3.93848 -3.93848 -5.90723 -3.93848 -9.8457s1.96875 -5.9082 1.96875 -7.87695
c1.96973 -3.93848 55.1387 -63.0156 112.246 -102.4z" />
    <glyph glyph-name="organization" unicode="&#xf113;" 
d="M78.7695 448h354.461c32.6309 0 59.0771 -26.4473 59.0771 -59.0771v-452.923h-472.615v452.923c0 32.6299 26.4463 59.0771 59.0771 59.0771zM78.7695 408.615c-10.8506 0 -19.6924 -8.82227 -19.6924 -19.6924v-413.538h157.538v98.4609h78.7695v-98.4609h157.538
v413.538c0 10.8701 -8.8418 19.6924 -19.6924 19.6924h-354.461zM98.4619 369.23h78.7686v-59.0762h-78.7686v59.0762zM216.615 369.23h78.7695v-59.0762h-78.7695v59.0762zM334.77 369.23h78.7686v-59.0762h-78.7686v59.0762zM98.4619 270.77h78.7686v-59.0771h-78.7686
v59.0771zM216.615 270.77h78.7695v-59.0771h-78.7695v59.0771zM334.77 270.77h78.7686v-59.0771h-78.7686v59.0771zM98.4619 172.308h78.7686v-59.0771h-78.7686v59.0771zM216.615 172.308h78.7695v-59.0771h-78.7695v59.0771zM334.77 172.308h78.7686v-59.0771h-78.7686
v59.0771zM98.4619 73.8457h78.7686v-59.0762h-78.7686v59.0762zM334.77 73.8457h78.7686v-59.0762h-78.7686v59.0762z" />
    <glyph glyph-name="minus" unicode="&#xf11a;" 
d="M265.846 385.221c112.148 0 203.087 -90.9189 203.087 -203.066c0 -112.148 -90.9385 -203.087 -203.087 -203.087c-112.147 0 -203.066 90.9385 -203.066 203.087c0 112.147 90.9189 203.066 203.066 203.066zM374.154 152.615v59.0771h-216.616v-59.0771h216.616z" />
    <glyph glyph-name="trailer" unicode="&#xf127;" 
d="M59.0771 365.538h196.923c49.2305 0 177.23 -80.8613 177.23 -224.615v-51.0771h59.0771c11.8154 0 19.6924 -7.87695 19.6924 -19.6914c0 -11.8154 -7.87695 -19.6924 -19.6924 -19.6924h-216.615c-3.93848 35.4453 -33.4766 60.9229 -68.9229 60.9229
s-64.9854 -27.4463 -68.9238 -60.9229h-78.7686c-33.4775 0 -59.0771 25.5996 -59.0771 59.0762v196.924c0 33.4766 25.5996 59.0762 59.0771 59.0762zM78.7695 306.462c-11.8154 0 -19.6924 -7.87695 -19.6924 -19.6924v-59.0771h78.7686v78.7695h-59.0762z
M196.923 306.462v-78.7695h147.692c-11.8154 43.3232 -67.0771 78.7695 -96.6152 78.7695h-51.0771zM206.77 85.5381c25.0137 0 45.5381 -19.9082 45.5381 -44.9229c0 -25.0137 -20.5244 -45.5381 -45.5381 -45.5381c-25.0146 0 -45.5391 20.5244 -45.5391 45.5381
c0 25.0146 20.5244 44.9229 45.5391 44.9229z" />
    <glyph glyph-name="delete" unicode="&#xf118;" 
d="M428.032 61.2432l-41.3145 -41.2754c-7.54199 -7.60059 -19.9092 -7.60059 -27.4902 0l-103.208 103.168l-103.207 -103.148c-7.58203 -7.60059 -19.9678 -7.60059 -27.5107 0.0400391l-41.334 41.2158c-7.58105 7.60156 -7.58105 19.9092 0 27.5303l103.208 103.227
l-103.188 103.188c-7.56152 7.62109 -7.56152 20.0078 0 27.5303l41.3145 41.2949c7.5625 7.64062 19.9482 7.64062 27.5107 0l103.188 -103.208l103.228 103.208c7.60059 7.64062 19.9678 7.64062 27.4902 0l41.3145 -41.2363
c7.60059 -7.60059 7.60059 -19.9873 0.0195312 -27.5889l-103.207 -103.188l103.188 -103.207c7.58105 -7.64062 7.58105 -19.9482 0 -27.5498z" />
  </font>
</defs>
</svg>
